<mxfile host="Electron" modified="2023-12-18T08:45:18.215Z" agent="Mozilla/5.0 (X11; Linux x86_64) AppleWebKit/537.36 (KHTML, like Gecko) draw.io/21.4.0 Chrome/112.0.5615.204 Electron/24.5.1 Safari/537.36" etag="ndR39dwyeI0FsIkQn6pf" version="21.4.0" type="device" pages="3">
  <diagram name="总体样本参数统计量" id="iqyvhMQtdBq_X1_tKi7Q">
    <mxGraphModel dx="954" dy="663" grid="1" gridSize="10" guides="1" tooltips="1" connect="1" arrows="1" fold="1" page="1" pageScale="1" pageWidth="850" pageHeight="1100" math="0" shadow="0">
      <root>
        <mxCell id="0" />
        <mxCell id="1" parent="0" />
        <mxCell id="nG-sgMQBO-yh3-9H8Gpy-7" style="edgeStyle=orthogonalEdgeStyle;rounded=0;orthogonalLoop=1;jettySize=auto;html=1;exitX=0.5;exitY=1;exitDx=0;exitDy=0;endArrow=blockThin;endFill=1;strokeWidth=2;" parent="1" source="nG-sgMQBO-yh3-9H8Gpy-1" target="nG-sgMQBO-yh3-9H8Gpy-5" edge="1">
          <mxGeometry relative="1" as="geometry" />
        </mxCell>
        <mxCell id="nG-sgMQBO-yh3-9H8Gpy-1" value="" style="ellipse;whiteSpace=wrap;html=1;strokeWidth=2;" parent="1" vertex="1">
          <mxGeometry x="200" y="160" width="120" height="80" as="geometry" />
        </mxCell>
        <mxCell id="nG-sgMQBO-yh3-9H8Gpy-2" value="&lt;b&gt;总体&lt;/b&gt;" style="text;html=1;strokeColor=none;fillColor=none;align=center;verticalAlign=middle;whiteSpace=wrap;rounded=0;" parent="1" vertex="1">
          <mxGeometry x="230" y="130" width="60" height="30" as="geometry" />
        </mxCell>
        <mxCell id="nG-sgMQBO-yh3-9H8Gpy-8" style="edgeStyle=orthogonalEdgeStyle;shape=connector;rounded=0;orthogonalLoop=1;jettySize=auto;html=1;exitX=0.5;exitY=1;exitDx=0;exitDy=0;labelBackgroundColor=default;strokeColor=default;strokeWidth=2;fontFamily=Helvetica;fontSize=11;fontColor=default;endArrow=blockThin;endFill=1;" parent="1" source="nG-sgMQBO-yh3-9H8Gpy-3" target="nG-sgMQBO-yh3-9H8Gpy-6" edge="1">
          <mxGeometry relative="1" as="geometry" />
        </mxCell>
        <mxCell id="nG-sgMQBO-yh3-9H8Gpy-3" value="" style="ellipse;whiteSpace=wrap;html=1;strokeWidth=2;" parent="1" vertex="1">
          <mxGeometry x="365" y="180" width="60" height="40" as="geometry" />
        </mxCell>
        <mxCell id="nG-sgMQBO-yh3-9H8Gpy-4" value="&lt;b&gt;样本&lt;/b&gt;" style="text;html=1;strokeColor=none;fillColor=none;align=center;verticalAlign=middle;whiteSpace=wrap;rounded=0;" parent="1" vertex="1">
          <mxGeometry x="365" y="150" width="60" height="30" as="geometry" />
        </mxCell>
        <mxCell id="nG-sgMQBO-yh3-9H8Gpy-5" value="&lt;b&gt;参数&lt;/b&gt;" style="text;html=1;align=center;verticalAlign=middle;resizable=0;points=[];autosize=1;strokeColor=none;fillColor=none;" parent="1" vertex="1">
          <mxGeometry x="235" y="270" width="50" height="30" as="geometry" />
        </mxCell>
        <mxCell id="nG-sgMQBO-yh3-9H8Gpy-6" value="&lt;b&gt;统计量&lt;/b&gt;" style="text;html=1;align=center;verticalAlign=middle;resizable=0;points=[];autosize=1;strokeColor=none;fillColor=none;" parent="1" vertex="1">
          <mxGeometry x="365" y="270" width="60" height="30" as="geometry" />
        </mxCell>
        <mxCell id="nG-sgMQBO-yh3-9H8Gpy-9" value="&lt;b&gt;u&lt;/b&gt;" style="text;html=1;align=center;verticalAlign=middle;resizable=0;points=[];autosize=1;strokeColor=none;fillColor=none;" parent="1" vertex="1">
          <mxGeometry x="245" y="290" width="30" height="30" as="geometry" />
        </mxCell>
        <mxCell id="nG-sgMQBO-yh3-9H8Gpy-10" value="&lt;b&gt;平均数&lt;/b&gt;" style="text;html=1;align=center;verticalAlign=middle;resizable=0;points=[];autosize=1;strokeColor=none;fillColor=none;" parent="1" vertex="1">
          <mxGeometry x="305" y="290" width="60" height="30" as="geometry" />
        </mxCell>
        <mxCell id="nG-sgMQBO-yh3-9H8Gpy-11" value="&lt;b&gt;x&lt;/b&gt;" style="text;html=1;align=center;verticalAlign=middle;resizable=0;points=[];autosize=1;strokeColor=none;fillColor=none;" parent="1" vertex="1">
          <mxGeometry x="380" y="290" width="30" height="30" as="geometry" />
        </mxCell>
        <mxCell id="nG-sgMQBO-yh3-9H8Gpy-12" value="σ" style="text;html=1;align=center;verticalAlign=middle;resizable=0;points=[];autosize=1;strokeColor=none;fillColor=none;fontStyle=1" parent="1" vertex="1">
          <mxGeometry x="245" y="310" width="30" height="30" as="geometry" />
        </mxCell>
        <mxCell id="nG-sgMQBO-yh3-9H8Gpy-13" value="&lt;b&gt;标准差&lt;/b&gt;" style="text;html=1;align=center;verticalAlign=middle;resizable=0;points=[];autosize=1;strokeColor=none;fillColor=none;" parent="1" vertex="1">
          <mxGeometry x="305" y="310" width="60" height="30" as="geometry" />
        </mxCell>
        <mxCell id="nG-sgMQBO-yh3-9H8Gpy-14" value="&lt;b&gt;s&lt;/b&gt;" style="text;html=1;align=center;verticalAlign=middle;resizable=0;points=[];autosize=1;strokeColor=none;fillColor=none;" parent="1" vertex="1">
          <mxGeometry x="380" y="310" width="30" height="30" as="geometry" />
        </mxCell>
        <mxCell id="nG-sgMQBO-yh3-9H8Gpy-15" value="" style="endArrow=none;html=1;rounded=0;labelBackgroundColor=default;strokeColor=default;strokeWidth=1;fontFamily=Helvetica;fontSize=11;fontColor=default;shape=connector;" parent="1" edge="1">
          <mxGeometry width="50" height="50" relative="1" as="geometry">
            <mxPoint x="389" y="299" as="sourcePoint" />
            <mxPoint x="399" y="299" as="targetPoint" />
          </mxGeometry>
        </mxCell>
        <mxCell id="nG-sgMQBO-yh3-9H8Gpy-16" value="π" style="text;html=1;align=center;verticalAlign=middle;resizable=0;points=[];autosize=1;strokeColor=none;fillColor=none;fontStyle=1" parent="1" vertex="1">
          <mxGeometry x="245" y="330" width="30" height="30" as="geometry" />
        </mxCell>
        <mxCell id="nG-sgMQBO-yh3-9H8Gpy-17" value="&lt;b&gt;比&amp;nbsp; &amp;nbsp; 例&lt;/b&gt;" style="text;html=1;align=center;verticalAlign=middle;resizable=0;points=[];autosize=1;strokeColor=none;fillColor=none;" parent="1" vertex="1">
          <mxGeometry x="305" y="330" width="60" height="30" as="geometry" />
        </mxCell>
        <mxCell id="nG-sgMQBO-yh3-9H8Gpy-18" value="&lt;b&gt;p&lt;/b&gt;" style="text;html=1;align=center;verticalAlign=middle;resizable=0;points=[];autosize=1;strokeColor=none;fillColor=none;" parent="1" vertex="1">
          <mxGeometry x="380" y="330" width="30" height="30" as="geometry" />
        </mxCell>
        <mxCell id="nG-sgMQBO-yh3-9H8Gpy-20" value="" style="ellipse;whiteSpace=wrap;html=1;aspect=fixed;fontFamily=Helvetica;fontSize=11;fontColor=default;fillColor=#E6E6E6;" parent="1" vertex="1">
          <mxGeometry x="375" y="186.5" width="10" height="10" as="geometry" />
        </mxCell>
        <mxCell id="nG-sgMQBO-yh3-9H8Gpy-21" value="" style="ellipse;whiteSpace=wrap;html=1;aspect=fixed;fontFamily=Helvetica;fontSize=11;fontColor=default;fillColor=#E6E6E6;" parent="1" vertex="1">
          <mxGeometry x="225" y="191" width="10" height="10" as="geometry" />
        </mxCell>
        <mxCell id="nG-sgMQBO-yh3-9H8Gpy-22" value="" style="ellipse;whiteSpace=wrap;html=1;aspect=fixed;fontFamily=Helvetica;fontSize=11;fontColor=default;fillColor=#E6E6E6;" parent="1" vertex="1">
          <mxGeometry x="255" y="206" width="10" height="10" as="geometry" />
        </mxCell>
        <mxCell id="nG-sgMQBO-yh3-9H8Gpy-23" value="" style="ellipse;whiteSpace=wrap;html=1;aspect=fixed;fontFamily=Helvetica;fontSize=11;fontColor=default;fillColor=#E6E6E6;" parent="1" vertex="1">
          <mxGeometry x="265" y="216" width="10" height="10" as="geometry" />
        </mxCell>
        <mxCell id="nG-sgMQBO-yh3-9H8Gpy-25" value="" style="ellipse;whiteSpace=wrap;html=1;aspect=fixed;fontFamily=Helvetica;fontSize=11;fontColor=default;fillColor=#E6E6E6;" parent="1" vertex="1">
          <mxGeometry x="405" y="199.5" width="10" height="10" as="geometry" />
        </mxCell>
        <mxCell id="nG-sgMQBO-yh3-9H8Gpy-26" value="" style="ellipse;whiteSpace=wrap;html=1;aspect=fixed;fontFamily=Helvetica;fontSize=11;fontColor=default;fillColor=#E6E6E6;" parent="1" vertex="1">
          <mxGeometry x="255" y="173.5" width="10" height="10" as="geometry" />
        </mxCell>
        <mxCell id="nG-sgMQBO-yh3-9H8Gpy-27" value="" style="ellipse;whiteSpace=wrap;html=1;aspect=fixed;fontFamily=Helvetica;fontSize=11;fontColor=default;fillColor=#E6E6E6;" parent="1" vertex="1">
          <mxGeometry x="285" y="186.5" width="10" height="10" as="geometry" />
        </mxCell>
      </root>
    </mxGraphModel>
  </diagram>
  <diagram id="IP3JFnAJR5KSZkA7IXB1" name="检验统计量的确定">
    <mxGraphModel dx="954" dy="663" grid="1" gridSize="10" guides="1" tooltips="1" connect="1" arrows="1" fold="1" page="1" pageScale="1" pageWidth="850" pageHeight="1100" math="0" shadow="0">
      <root>
        <mxCell id="0" />
        <mxCell id="1" parent="0" />
        <mxCell id="Pc5p7mYZ4nAhBxKBuz8C-3" value="&lt;b&gt;&lt;font style=&quot;font-size: 14px;&quot;&gt;小&lt;/font&gt;&lt;/b&gt;" style="edgeStyle=orthogonalEdgeStyle;rounded=0;orthogonalLoop=1;jettySize=auto;html=1;exitX=1;exitY=0.5;exitDx=0;exitDy=0;entryX=0;entryY=0.5;entryDx=0;entryDy=0;fontFamily=Helvetica;fontSize=12;fontColor=default;strokeWidth=2;endArrow=blockThin;endFill=1;" edge="1" parent="1" source="Pc5p7mYZ4nAhBxKBuz8C-1" target="Pc5p7mYZ4nAhBxKBuz8C-2">
          <mxGeometry relative="1" as="geometry" />
        </mxCell>
        <mxCell id="Pc5p7mYZ4nAhBxKBuz8C-5" value="&lt;b style=&quot;font-size: 14px;&quot;&gt;大&lt;/b&gt;" style="edgeStyle=orthogonalEdgeStyle;shape=connector;rounded=0;orthogonalLoop=1;jettySize=auto;html=1;exitX=1;exitY=0.5;exitDx=0;exitDy=0;entryX=0;entryY=0.5;entryDx=0;entryDy=0;labelBackgroundColor=default;strokeColor=default;strokeWidth=2;fontFamily=Helvetica;fontSize=14;fontColor=default;endArrow=blockThin;endFill=1;" edge="1" parent="1" source="Pc5p7mYZ4nAhBxKBuz8C-1" target="Pc5p7mYZ4nAhBxKBuz8C-4">
          <mxGeometry relative="1" as="geometry" />
        </mxCell>
        <mxCell id="Pc5p7mYZ4nAhBxKBuz8C-1" value="&lt;b style=&quot;font-size: 16px;&quot;&gt;样本量 n&lt;/b&gt;" style="rhombus;whiteSpace=wrap;html=1;strokeWidth=2;fontSize=16;" vertex="1" parent="1">
          <mxGeometry x="160" y="210" width="120" height="80" as="geometry" />
        </mxCell>
        <mxCell id="Pc5p7mYZ4nAhBxKBuz8C-9" style="edgeStyle=orthogonalEdgeStyle;shape=connector;rounded=0;orthogonalLoop=1;jettySize=auto;html=1;exitX=1;exitY=0.5;exitDx=0;exitDy=0;labelBackgroundColor=default;strokeColor=default;strokeWidth=2;fontFamily=Helvetica;fontSize=14;fontColor=default;endArrow=blockThin;endFill=1;" edge="1" parent="1" source="Pc5p7mYZ4nAhBxKBuz8C-2" target="Pc5p7mYZ4nAhBxKBuz8C-8">
          <mxGeometry relative="1" as="geometry" />
        </mxCell>
        <mxCell id="Pc5p7mYZ4nAhBxKBuz8C-10" value="&lt;b&gt;已知&lt;/b&gt;" style="edgeLabel;html=1;align=center;verticalAlign=middle;resizable=0;points=[];fontSize=14;fontFamily=Helvetica;fontColor=default;" vertex="1" connectable="0" parent="Pc5p7mYZ4nAhBxKBuz8C-9">
          <mxGeometry x="0.15" y="-2" relative="1" as="geometry">
            <mxPoint y="1" as="offset" />
          </mxGeometry>
        </mxCell>
        <mxCell id="Pc5p7mYZ4nAhBxKBuz8C-12" style="edgeStyle=orthogonalEdgeStyle;shape=connector;rounded=0;orthogonalLoop=1;jettySize=auto;html=1;exitX=1;exitY=0.5;exitDx=0;exitDy=0;entryX=0;entryY=0.5;entryDx=0;entryDy=0;labelBackgroundColor=default;strokeColor=default;strokeWidth=2;fontFamily=Helvetica;fontSize=14;fontColor=default;endArrow=blockThin;endFill=1;" edge="1" parent="1" source="Pc5p7mYZ4nAhBxKBuz8C-2" target="Pc5p7mYZ4nAhBxKBuz8C-11">
          <mxGeometry relative="1" as="geometry" />
        </mxCell>
        <mxCell id="Pc5p7mYZ4nAhBxKBuz8C-13" value="&lt;b&gt;未知&lt;/b&gt;" style="edgeLabel;html=1;align=center;verticalAlign=middle;resizable=0;points=[];fontSize=14;fontFamily=Helvetica;fontColor=default;" vertex="1" connectable="0" parent="Pc5p7mYZ4nAhBxKBuz8C-12">
          <mxGeometry x="0.15" y="2" relative="1" as="geometry">
            <mxPoint as="offset" />
          </mxGeometry>
        </mxCell>
        <mxCell id="Pc5p7mYZ4nAhBxKBuz8C-2" value="&lt;b style=&quot;font-size: 16px;&quot;&gt;总体标准差&amp;nbsp;&lt;/b&gt;&lt;b&gt;σ&lt;/b&gt;" style="rhombus;whiteSpace=wrap;html=1;strokeWidth=2;fontSize=16;" vertex="1" parent="1">
          <mxGeometry x="360" y="280" width="120" height="80" as="geometry" />
        </mxCell>
        <mxCell id="Pc5p7mYZ4nAhBxKBuz8C-4" value="&lt;b style=&quot;font-size: 16px;&quot;&gt;Z 统计量&lt;/b&gt;" style="rounded=0;whiteSpace=wrap;html=1;strokeColor=default;strokeWidth=2;fontFamily=Helvetica;fontSize=16;fontColor=default;fillColor=default;" vertex="1" parent="1">
          <mxGeometry x="360" y="160" width="120" height="40" as="geometry" />
        </mxCell>
        <mxCell id="Pc5p7mYZ4nAhBxKBuz8C-6" value="&lt;b&gt;n &amp;gt;= 30&lt;/b&gt;" style="text;html=1;strokeColor=none;fillColor=none;align=center;verticalAlign=middle;whiteSpace=wrap;rounded=0;fontSize=14;fontFamily=Helvetica;fontColor=default;" vertex="1" parent="1">
          <mxGeometry x="333" y="200" width="60" height="30" as="geometry" />
        </mxCell>
        <mxCell id="Pc5p7mYZ4nAhBxKBuz8C-7" value="&lt;b&gt;n &amp;lt; 30&lt;/b&gt;" style="text;html=1;strokeColor=none;fillColor=none;align=center;verticalAlign=middle;whiteSpace=wrap;rounded=0;fontSize=14;fontFamily=Helvetica;fontColor=default;" vertex="1" parent="1">
          <mxGeometry x="330" y="270" width="60" height="30" as="geometry" />
        </mxCell>
        <mxCell id="Pc5p7mYZ4nAhBxKBuz8C-8" value="&lt;b style=&quot;font-size: 16px;&quot;&gt;Z 统计量&lt;/b&gt;" style="rounded=0;whiteSpace=wrap;html=1;strokeColor=default;strokeWidth=2;fontFamily=Helvetica;fontSize=16;fontColor=default;fillColor=default;" vertex="1" parent="1">
          <mxGeometry x="560" y="240" width="120" height="40" as="geometry" />
        </mxCell>
        <mxCell id="Pc5p7mYZ4nAhBxKBuz8C-11" value="&lt;b style=&quot;font-size: 16px;&quot;&gt;t 统计量&lt;/b&gt;" style="rounded=0;whiteSpace=wrap;html=1;strokeColor=default;strokeWidth=2;fontFamily=Helvetica;fontSize=16;fontColor=default;fillColor=default;" vertex="1" parent="1">
          <mxGeometry x="560" y="360" width="120" height="40" as="geometry" />
        </mxCell>
        <mxCell id="Pc5p7mYZ4nAhBxKBuz8C-15" value="" style="shape=image;verticalLabelPosition=bottom;labelBackgroundColor=default;verticalAlign=top;aspect=fixed;imageAspect=0;image=data:image/png,iVBORw0KGgoAAAANSUhEUgAAAXMAAABgCAIAAABg7QVEAAAACXBIWXMAAB2HAAAdhwGP5fFlAAAgAElEQVR4nO2de1xTR/rw54REIAlWu5LQVrs1QbQiAa12TbSCFYq9yE1sBaytWimtbhXwUgV/67WtguCnuyoq1isgtgh4aVWCYpWgq6BcrBcItlqUBLEWCSQ5yZn3j9k9bzYJIeQCAc73r8OZcyYTnskzzzzzzDMYhBBQUFBQ2BRaTzeAgoKiD0JpFgoKCttDaRYKCgrbQ+/pBvQwarX63LlzFr/+/PPPv/766zZsD0X30NzcfPXqVYtfHzp06JgxY2zYnr5Hf9csCoUiKSnJ4td9fHwozdIbqaurs0buYWFhlGYxDdbP14YghC0tLRa/7uTkxGazbdgeiu5Bo9EoFAqLX3d2dnZxcbFhe/oe/V2zUFBQ2APKg0tBQWF7KM1CQUFheyjNQkFBYXsozUJBQWF7+vuqsyFqtbq5ubm8vBxC6OXl5enp6eTkBADQarVSqfT27dsDBw4UCoXOzs493dJOKC8vb2homDFjBoZhhqU4juM4zmQyu79hjolSqbx///6dO3fYbPaoUaNeeOEFdF+j0dTX19++ffuFF17w8/NjMBg9285OOXfuHIRw2rRpRkuVSiUAoBsWtijN8j/I5fJVq1bduHGDvBMeHr569WqCIJKTk8ViMYQQQsjn83fu3DlkyJAebKppTp48uXbtWgDAw4cP4+Li9EqbmpoWLVr06NGjb7/9duzYsT3QPgejtrY2KSmpvr4eQohhGIRwzpw58fHxjx8//uyzz6RSKYZhGIaNGTMmMzOTTnfcX01aWlpWVhYAICMjY8KECXqlN27cQJ354MGDHA7Hri2hZkP/n+rq6o8//vjRo0fr168/derUoUOH+Hx+QUHBypUr16xZU1VVtWvXrgsXLsyYMePevXvr1q3Dcbynm2wcrVZ75swZdD1y5Ei9UghhRkZGfX19W1vb77//3u2tczgqKioWLFjAYrG2bt164cKFzZs3s9nsrKysLVu2LFq0CMOw3Nzcc+fOvf766zU1Nd99953DBmqoVKqioiJkog4aNEivFMfxvXv3yuXypqamp0+f2rsxjqt9uxmlUrl+/Xo2m71t27YXX3wRAODh4SEUCuvr68+fPw8h3Lx587hx49LS0k6dOgUAqKys1Gg0jmkbq9XqqqoqAACE8NVXX9UrValUqBTDsPHjx/dA+xwJmUy2dOlSkUi0du1aNEeYOnWqWCwuKio6evQoi8XKysry8PBITk7+97//DQAoKyv7+OOPBwwY0NMNN8Jvv/0ml8sxDONyuUOHDtUrxXFcIpGg0mHDhtm7MZRm+Q87d+6UyWTff/89l8slb5Kjk0gkCggIUCqVYrEY3fH09DTqv3AEfvnlFxRgyuPxBg8erFf65MmT+vp6DMN4PN7zzz/fUSUEQWg0GgAAnU6n0fqmbYvj+LZt29hs9vLly3VdD6Tcp02bNnTo0GfPnpG2AJfLddj/RkVFBWqkQCAw1H1XrlwhS02MiFqtVqPR0Gg0Op1uTQ+nNAsAALS3txcUFIhEInd3d/ImQRBNTU3oWigU0ul0giC4XK5cLmcymYsXL3bY+O7y8nJ0YbSHXbhwAV34+Ph01MN+/PHHM2fO3LlzB8OwsWPHvv/++35+fvZrcE9x7969oqKihISEv/zlL+RNjUYjk8kAABDCKVOmAAAYDAaPx5NKpSwWKzY21jH9LFqtlvQP+vr6omUHXa5fv44u+Hy+0a8AITx69Ghpaen169fZbPbYsWMXLlw4fPhwy9rjiP+j7ufRo0fvvPNOZGSk7nCE43hlZSW6fu211wAAAwYMyMzMvHTp0qhRozw8PMysvKWlxRrdDyEcOHCg+c9rNJrq6mp0PW7cOL2PJgiisrISOSk9PT2NDr9Hjx7dvHnz3Llz16xZ8+zZs8zMzCVLlqxatWr69OkWfwvHhEajzZo1S+974TheVVWFYRibzUbbTV1cXHbs2HHz5s0urQlaKXcnJ6curdyRU2Dw3+6qV1pTU4Oux40bZ7SGpKSk0tLSRYsWpaSkNDQ0fPnllx999NGOHTss23tJ7Rv6D2hRQPdObW3t7NmzMQzjcDh5eXmurq4WVNvc3BwSEtLe3m5xwzAMO3XqlPmKrK2tbfr06W1tbRDCkydPkqunCKVSGRERIZfLIYQ5OTleXl56r9+4cWPBggXBwcFfffUVuoPjeGhoaGtr67Fjxxx5OcxWlJSULFu2DAAgFArT09Mts1DOnz8fHx9vzbyJyWSKxWLz7eK7d+9GRUV11F1bW1v9/f0xDGOxWKdPnzbszLm5uVu2bPn8888XLFiA7sjl8sjISA8Pj6ysLAv8iZTN8h8Mh5dr166R81KLo1cGDx6cnp5uzbZaJpNpvloBAPzyyy9tbW0AAD6fb+hGuX//vkwm68iNRxDE0aNHAQDvvPMOeZPBYAQHBx86dKiwsJDsdn2YiooKdOHj42PxxMff3z8tLc0am2XgwIFdmm5fu3YNXRidAl+9etWEkwXH8by8PABASEgIeXPIkCFjx469dOmSWCx+++23u9p+SrMYB80a0LWvr6/Fgw+NRuvmBC4VFRXI/vLx8THsYeXl5SacfE+ePCktLQUAoNUxEvSnRCL56KOPHNPLYCvUajWaS0IIDecU5kOj0d58803btasTtFotmsEBAAQCQUdOFgjh8OHDDSX44MEDqVQKANCdd9NoNB6Ph9wu06dP76qWdFAvd49DLs0CY7NWFMjogCAnC+oEY8eO1esNWq2WVJdk/1Or1eSM+NatWwqFAkKop1k8PDwghNevX0erRX2YJ0+eILmzWCyjC/Y90ajOscDJotuHS0pKMAzraLmztLTUgtAtSrP8h9u3b+/evbu2thb9+eDBA7lcDgDgcDgvv/yy7pO1tbWxsbGk8elQ6EayGPpQkG8SlaIIuvb29oULF+rm6zT0N4H/ThUxDHv48KFd29/9XL16dffu3fX19ehPcgrM5/P1Zg0lJSULFixAM01H4/79+6i7AgD0uisAQK1WkyMKCsytra395JNPyDXEZ8+eAQDYbLah6CGEjY2NFnhj+7Jlaz4XLlxISEjAMKygoAB5v8ilWb0lOoIg9u7d+9tvv3l7e/dQY01x69at1tZW1D9eeuklvVJSXbLZ7NGjRwMAxGJxTU3Nc889hx6ora1Fy0Z6PYzsWA8fPuTxePb+Ft1GdnZ2WloaAKCqqio9Pd3JyenSpUuoSG9JHsfxAwcOMBgMx4yN1PUNGc7ckUkCdKbAx48fv3XrFuohRscSBNrTgHa0dLVJlM0C1Gr1/v370T9XLpdrNBoUrYhK9eallZWVEokkNDTUsqUie0OOQgAAgiB0iwiC2LZtG7pGPxuNRiORSLhcLqkl0dgFdFQJCfr/9KWVRKVSeejQIXSN5K5SqcixXW9N7dKlS1VVVcHBwQ6oWXQnuVKpVE/ucrn8wIED6HrMmDEMBkOlUl25ckUkEqEoHoIgdDfK6ULqFEqzWAKpsCGE0dHRbm5uZ86cqa6uRv9N5HdAD9y6dWvz5s0eHh6LFy/useZ2jK6TBcMwtH+SLFq1atWVK1fQnywWi0aj1dfXl5aWBgYGGmpJo1axnZvf3ZC/QAjh3LlzXV1dDx48SMZGkkoWAHDlypW1a9e+9dZbs2bN6oGGdoauk6Wtra2uro4sam9vT01NvXfvHtCxTUpLS+vr6yMiIgy1pJ7ckc1iWauo2RBgMBhvvfVWVVXVhAkTxo8fv2vXruzs7MDAwMjIyMTExMLCQj6f/9JLL12/fj0/P5/D4WRkZDjmthHdHgYAyMzMdHJyeu6551paWvLz8+vq6tasWXPo0KFff/21pqbm3LlzOTk5LBZrzpw55Cu6Sla3ZvK+w25osABXV1ehUHj8+PEpU6YMHDhw/fr1hYWFiYmJGIZt3br18OHDHA5n0KBBFy9eLCgoGDNmzIYNGwzXXBwBXScLAGDjxo3R0dGDBg1qbGzcv38/hPDrr79et26dUqm8fPlycXHx7t27x4wZM2nSJPQ8jUbz8/MjHXC6NZM2iwVy71yzaLXazMxMFHmFJl2dfhJBEKGhoZ6enl1tTU8xe/bshoaGnJyca9euubu7h4SEILfL+vXr9+3bt3XrVgghl8sNCQlZtGiRwwb1624X8vb2Li4uXrduHYSQzWaLRKJVq1aNGDFiypQpS5curampWbFiBYfD2bJli+5uej8/v4MHDxrWTHY4w53TvRcMw/7+97/L5fKff/754sWLHA4nISEhOjoalebl5W3YsAEAwOfz4+Li5s2b57DL7SiXEIoz4HK5Eolk/fr1GIa5uLhERER8+OGH7u7uXC43PT29qqpqxYoVPj4+aWlp5OhI/qiNgkotiLro/J9148aNPXv26N7RdfkQBGH42RDCgICArjalB8EwbNmyZZ9//vnTp0+ff/55Z2dn9AX9/f1FIpFarW5paRk0aJBj+lZISCeLj49PUlLSihUrNBpNbW3tyJEjXV1dkYAGDx6cmZmpUqkIgmAwGHrfiEajkQLVvY8kThCEm5tbt32dbmDw4MHbtm1TqVRarXbAgAHkmBEVFRUREfHkyRM3Nzc6ne6wYwkAgCAIMpIlKCjogw8+UKlUf/75Z0tLy8svv0zKVyAQ7Ny5E8dxCKGzs7Ne5CcSa11dnVEVY5mJ0Llm0XUKMplMkUgkEAjIeAdSxeTm5qJt5gCAxMREa6KMegomk2m4UwMtB7BYrB5pkvloNBoyZsHPz49Go6FeZbhJxMQCx4QJE9zc3FpbW+/evevr60veRx6+N954wwH9l1ZCp9ONGiPOzs56TlzHhAy8ghCOHz8e7TZiMpmGjXdxcelIRQYEBGzfvr21tVVXs5AGhNGgyk7pRLOoVCoyb0B0dPRnn33m7OxsaBplZ2eTaiUwMDAqKqqr7aCwEl0ni8VZVxgMxuTJk0+fPv3o0SNSs5ARDZMnT3ZMR0N/5sGDB2i7BofDsTjryrBhw/h8vlQqbWhoIKMK0JIThPDdd9+1oM5Opk8olwcAIDY2NiEhgTSqdTl58uTWrVvRdVBQ0MaNG/uSn6+3gCJZAACms66YBu39BQB8//33ZNilXC4vLS3lcDjdGa5OYSbkdg1fX1+LLUoGgzFv3jwMw44cOUKaLVVVVdevXxcIBJbtde7EZikpKQEATJw4saOtaOXl5SkpKei78Xi8devWOayjq2+j62SxZunKz8/vyy+/3Lx58/LlyyMjI1tbW/fv3w8ASE1N1U1iQuEIEARBrjELBAJrfnpvv/12RUXFsWPHAAD+/v4tLS3bt28fMWKExbu9Tb2DIqmYTOaSJUuMmsF1dXUJCQnkesT27dsdczm2z0NGskAIDbcLdZVZs2Z5eXkdPXp07969EEKhUBgTE9Mf8if0OnAcJ3PxWO/ZTEpKeuONN3744YfMzEwIYUREREhIiGE+XTMxpVnQ1F0kEhkN6JbL5UlJSUitsFisr776SjchG0V3otFo0FTI1dXVJqltfX19fXx8UCwZZYQ6LDiO19XV0Wi0IUOGGG4XsoApU6ZMmjQJ+W6t9KmZ6jSXL19ubW2dPn264Wc0NzcvXrwYuWBYLFZaWlovil7pe7i4uMycOZPH4wUEBHQpmYsJaDSawyZ8pUCw2exly5ZVVlbGxcXZKiTCVk56U0Eyf/zxR3l5eWBgoN59jUazZs2aoqIi9GdKSsrUqVNt0hoKa9BqtdTaTT/EMeXe5WyVBEGsXr2aXIpOTEyk1pgpKCj06PIUOjMzUzfCxUq1Yk2CWBIGg0H5AnoRaDe59fU4eEh0P6drP8icnJxdu3ahpYfAwMClS5da89mHDx9OT0+3pgZESEhIcnKyAxqEFIYQBLFp06bjx49bX1V8fHxMTAwVPOWYdEGzXL16NTU1FQlSKBRu2LDBSg+fj49PdHS0+T2jow24Xl5elFrpLdBotPfee8/8/UcdZYoBAAgEAkqtOCzm+lkqKiri4+PJ0JUdO3boBTgQBKHVavvevhIKCgoLMEuzyGSy999/H6kVDoezb98+3SNKEenp6c+ePfvyyy97RbDct99+S4YYUVjDK6+8kpSU1NOtMJeVK1c+efKkp1vRFxCJRPPmzTPxQOezoaampi+++IKMiNu0aZOhWmlvb8/PzxeJRL3Fk1pbW0seRklhDTbxwXcb1dXVukmSKCxG73QHQzpRBGq1etGiRboRcWPHjjV8TCwWKxSKyZMn95bYqpkzZ06cOLGnW9EX6F2biWJjY605VY6CpNNE653sG/rHP/6B1AqEMC4uzujeBBzHz549y2azLdgLa5ODexgMRlc9uL0rMVUfA0Jok4N7LEjIFBYWZv3nUphDh5oFpc8kA21NRMTdu3dPIpGIRKKuHlFaUFBw4sSJLr1iFG9v76VLl/YWc6mfAyHcvXs3mc3HGsLCwmbMmGF9PRT2oEPNkpOTU1BQQIaukPlB9VCr1d988w0AQCQSddVweOWVV7y9va1fOBwxYgSlVnoLGIaNGDHC+vPAIIRDhw61SZMo7IHxtaEjR46kpqai66CgoA0bNhh1zapUqs2bNx8/fhxCeOrUKQv2wmm12q6+YggVzNLroOTe5zGiL8rLy3fu3Imuhw8fbpjMiSAIHMdramq2b9+OMiSSpyJ1Fapz9E8oufd59DXL9evX4+PjkbHKZDKjo6MlEomuXSOTyerq6qqrq+vq6siJjFAopGLkKCgoSP5nNqRSqRITEy9fvkzeIUsND/rVvXPixIlekeicgoKie/gfm4XBYEyaNInH45lzuBH5p4eHh62yDVHYHBPngVP0SRxE4l3Oz0LRi0CnxKtUqjt37lhTT0hISEREhK1aRWE/0FZyV1dX8vApy5g5c6aVK/q9Ixi/TwIhzM7OHj16tNGwZptQW1ublZUlEoms7Gd/+9vfbNWk/gyEMCsra8yYMX5+fnb6iIsXLxYWFgYHB1sp8cmTJ1vZEkqz9Bh1dXVpaWmxsbF20ixarXb//v1sNnvBggX+/v7WVPXqq6/aqlX9mbq6uvT09MTERDtpFo1Gc/r0aRaLFRERYWWnsuyMIV0ozdJjnD9/HsOwadOm2al+qVR69uzZmJgYPz8/+w2SFOZz/vx5AID9DoQjJf7aa6/1+PHHVOhqz4COtRUKha+88oo96tdqtfv27WOz2TExMfaon6KrKJXKgoICiyO/OsXRJE5plp6hpqZGKpXaL+9EfX392bNnQ0NDDVNeUPQINTU1crlcJBLZKfJLKpWKxeKQkBAHkTilWXoAtBnCflMhCOHevXvZbHZHu70ouhkI4U8//cRkMkNDQ+1RP0EQ3333HYvFchCDBVCapUdQKpWXL18ODAy0+Gh308hksrKyMqFQ6CDDF4VSqRSLxRbkAzATqVRaVFTkUCYqpVl6gOLiYrlcPnnyZDtNhXJyclpbWxcsWOAIEVMUAIDi4uLW1tbJkyfbY8MUhPDEiRMYhs2YMcNxJE5plu5Go9GUlpayWCw7TYVkMllBQUFQUBCfz7dH/RRdRaPRnDlzhsvl2k/ihYWFgYGBDiVxSrN0N48fP5ZIJEKh0IKUaOaQlZXV2to6f/58KmeNg2BviWdnZzugxB2oKf2E8+fPKxSKyMhIexiuaPiiDBaHAoWxvPPOO/1K4lSkXNdQKpW6O630dn9hGGZ6XMJxXCKRuLu7Wx/jaBQ0n58/f35H8/lHjx7dvn2bzWb7+vrqnt/S3t7+9OnT27dvOzk5jRs3js1m26N5vRccx5uammprawmCGDhwoLe3t5kGiFqtPnbsGIfDsZPEs7KyFArFvHnzOpJ4bW1tQ0MDm8328fHR9R+3t7f/8ccfd+/epdFor732GovFsm3DKM1iFm1tbb/88stPP/10+fLlxsbGjh5jMpn79u3z9PTs6AGUMzgmJsYehnF7ezvaJdRRXvXc3Nzt27ej5PV+fn6pqamDBw/GcXz//v0FBQXk92KxWOHh4fHx8TZvYS/l2rVrO3bsqKysJAcSLpe7cePGcePGdfrur7/+Wl9f/+mnn9pjVaitra24uNiEwXLkyJGdO3e2traC/5X4P//5z+LiYl2Jx8XF2TZGgZoNdU55eXlkZGRcXFxhYaFMJsM6pr29/f79+yaqKikpAQC8++679mhnfn7+o0ePIiMjjS45lZeXb9myJSIi4vDhwxiGVVZWxsfHNzY2JiYmHj58ODAwMCUlJTc3NzAwsK2tLSsrKycnxx6N7HXk5uYmJCRIpdLly5cfOXLk5MmT69atc3FxWbJkyd27dzt9/eTJk8BuZ0Wg8eDjjz82KvHz58+npKSEh4cfOnQIAIAk/vDhw08//bS4uHjOnDkpKSlHjhwJCgpSKBRpaWmoqbaCslk6AWl9NM5DCAUCgUwmI0/DYrFYpIHAZrO9vb1N9CEU1MDn84cPH27zdiqVyqysLF9f30mTJhmW4jiOTrZcuHAhnU738fGprq6urq5evHgxjUbLysp64YUXkDn9ySefiMViDMPOnj07c+bMXnHipf24e/cusvJ27tz5+uuvo5vDhg2Ty+VKpbKkpMTLy8vE60jiAoHAfhIXCARGTVQcx48dO+br64skLhAIqqura2pqvvjiCxqNtnv3bg8PDyTx+fPnoyM68vLygoODbRUiTGkWU+Tk5KSmpmIYxuFwVq5cOWHCBDqdrlarJRLJpk2bFApFa2vr+vXrPTw8CIJwcnIyHZ9y8+ZNqVQaFxdnj59rfn5+Y2PjsmXLjLbh8ePHZWVlsbGxLBZLpVIhMxjDMCcnp23btunmA3zppZeQzV9ZWWmTPNi9FxTY2tbWJhAIyC2dOI7v2bNHz93WETU1NTKZbM6cOfaI6M/Pz5fJZMuXLzdaeX19vUQiSUhIYLFYSqWSnPgYlTi6kEqlGo3GVk2lZkMdUl5ejtQKj8fLzMz09/dnMpkDBgxAZ7YFBQUBADAMu3TpEoPBcHZ2Nq1WIIQ//vgjAOC9994zvw04jpvzmEqlKigoEAgEHaXVOHfuHABg6tSpAIDm5mbS5lq+fLlemtHff/8duRI8PT0dJ+yqR1CpVJWVlQAAhUKh0WjQTRqNxuFwIITDhw+PjIw08TpBED/99BPo4uZm8oNMo1QqDx8+7OPjY9REBQBcuHABAIDsrN9++w1JHEJoKPHbt2+jC09PTxuuW1OaxThqtfpf//oXysu5cuVKvVNs6XS6SCRCo9ajR4/MqVCpVJaVlYlEoiFDhpjzPIQwJydn6dKl5hgOEolEKpV+9NFHJgacadOmIT9fRUUFUhkTJ040zOJRW1uLLphMZj/PsA8hbGpqAgDU19cvXrw4Nzf37t27OI4nJydnZ2dnZ2eb3pyBtrObL3GCILKzs7/++mtzJI5M1Llz53YkcTc3t9DQUDRRIiUeFBRk6HV++PAhKrWtxKnZkHF++OGH6upqAEBYWJjRJQC5XI7kYebAjiL6TXQFXZRKZWpqakFBAQDg4sWLpv1/arX68OHDAoFAKBR29Ex0dHRUVBSNRiMI4vr16+imr6+vXk8iCOLixYtIn9pvV25vwcnJSSQSSSQSAEBVVVVVVRWE0MPDIywsbN68eZ3uzEARAMHBwebs4Whubk5JSSkqKsIw7P333x85cqSJh5HOEggEHRksAIDZs2dDCGk0mlarRZYX8hLqWSVarRZ9QQCAQCCw4XYTymYxAo7j5LGzY8eONao7Hj58CACAEJpYYybRarWXLl1isVghISGdPlxbWzt37lykVgAAp0+fNm0hl5aW3rhxIygoyMS6JoZhqEup1WqkMSGEhhpTrVajA6QAdfQ1AM7OzmFhYbr+FAzDZDLZrl27kpOTCYIw8S7aw2HmYee1tbWfffYZcpwDAPbt22fabJFIJJWVlXPnzjXhsCMljuM4kimGYYbpoJDTEAAAIbStxCnNYgSNRlNfXw8AYLFYRnsGjuPo9wkAMD28IJADVSgUdhrUUF5evmDBAgghucekqKhIKpV29DyO44cOHeJyueHh4Z02AwDwxx9/oNrYbPbo0aP1SpHHEQDA5XJffvllcyrs27z55pvp6emGxmBRUdGpU6dMvPj48eOzZ8+aE9H/448/dkniyETl8Xgikcicr3D//n0kUw6H89e//lWv9ObNm2jdk8/nG5ZaA6VZjHD//n0UXKQXtkjS3NyMxgE2mz1s2LBOKzx37pxCoQgODjY9j9VqtadOnfL19d2xY0d8fDwKi8QwbN++fR2NkKWlpZWVlR9++KGZoXfl5eVoYBQIBHqTHeRjJl0wqEKCIEwPzn0VtVqtUCgIgpgyZUpaWtqFCxdSUlKioqJIody4ccPE8hBymUdGRpr2iWo0mqtXrwqFQiRxVCGGYbm5uR1VjiQeHh5uZuhdeXk5uuDz+XqTHZQ1Bl0HBgaiCm0lcUqzGIH0aQ0fPtyoLkA7QQAAoaGhrq6upmtDEf0cDseEHwTh5OSUnJy8bds2d3d3LpcbGBiI7peVlZGrOXo15+XlcbncsLCwTr8UAEDXyWI4qUZZYwAAEEIUy4cOFdm4caOZCxZ9hqdPnyYkJEyZMmX16tVoIZbFYk2dOjUxMXHt2rXoGYVC0dGPH82muVxupxH9dDo9OTn566+/dnd353A4aMERACAWizuS+KFDhzgcjpkmKkEQlZWV5FhiKPGysjKgMxVCEk9PT7de4pRmMQKK6UAOMMNSlUp18OBBtBq9aNGiTmv79ddfJRIJaQWYhkajIV2GYdgHH3yA+q5CoTAaESuVSiUSyZw5czrVbghyEmfUyXLz5k1yKuTt7Q0AaGpqKiws9PDwsFMeGcdEo9F88803ly9fxjCsqKiovb1dt3TixInowtAbSnLv3r2qqqpp06aZI3EnJydUD41GmzdvHrqpUCgKCwsNH0Y+NfNNVNJxBiE0PL/h5s2bSH+RUyG5XJ6VleXm5ma9xCnNYoShQ4eyWCy0RGI4Lh04cKCpqQmtRptjkSID585MIWYAAAWHSURBVIMPPuhqM3g8HjmI5efn63VxjUZz4MAB8z0sAIAnT56YcLKQa5PkTwKtbvQ3V65WqyXtBR6Pp+clvXLlCgDAdHqdkpISDMO6FLiE4PP5pMQLCwuVSqVuKY7jZ86cQYtTZlZIOlmMOs5+/vlndEFOhZA6Q3FPVkJpFiMwmcw5c+ZACMViMRIMQqvVZmRk7N69m8VirVixwpyDF9ACIZ/PtyBHP51OnzVrFmm25Ofn65aiIyDMN1gAANeuXSMNY70fDISQ3MGAItZlMllGRkZ4eLg5i199CTqdzuVyIYSjRo3atWuX7uDx8OHDHTt2AABiYmI6yguJcvTzeDwLIvrpdHpwcDCSuEwm05M4ypreJYnfuXPHhMRREYRwxIgRAIDGxsasrKywsDCbSJzSLMaZP3++j4+PXC5PSko6efJkRUXFiRMn4uPjMzMzeTxeenq6mTYI2uo6bdo0y7a6CgQCgUAAAMAwLCsrixzECIJAR0B0KU0ZGQUnEon0/EcYhpFRc3/++efx48eXLFnC5XI//fRTh8on1A04OTnNmjWLxWI1Nzfn5eVd+C979uxZuHAhkmZsbGxHr9fU1DQ2NoaHh1u2h0MkEvn6+qLrw4cPq1QqdI3OpeuSiQohRBKHEPr6+urJEcMwtGUBw7CGhoaCgoKlS5dyudy4uDibxF73o/lzl6DT6ZmZmd9++21hYeH//d//oZmRr69vbGzs3Llzzc+BgJz8Fh9exWAw5s6du2zZMhRJIRaLkY1dV1dXVFRkYuQ0BEL4559/AgCGDBlitD3+/v7R0dHZ2dnp6ekAAKFQuGHDhsGDB1vW8l7NuHHjNm3a9N1332VkZKCxnSAINpvt5+e3fPlyE9NDtNqCYZjFE4oBAwaEh4cj50hjY6NEIkFVIYnHxsaab7BACFGAOI/HMyrxgICAqKgoJHF0ksSqVasGDRpkWcv1oE6M74T29vYHDx60tLSMHj2awWB0KSy1vb195syZfD4/PT3dYpeYUqmMiIhAM3+BQJCRkUGn01evXl1WVnb06NEu5WrXarUXL14UiUQmhtNnz55du3Zt1KhRHA6nn0f3azQalUrV0NDQ0NAwcuTI5557rtPdYaTE09LSLI5g1pP4rl27aDRacnKyRCKxTOKTJk0y0ZjW1lYkcXd3dxtKvH8Zuhbg6urq5eU1fvx4JpPZ1b6CDGMrjytzcXH58MMP0XVVVZVEIqmrqzt79qwFZ1Y5OTkFBASYttLd3NymTp1KJlXoz9DpdBaL5eXlNXXq1BdffJHFYpkT0S+Tyd566y1rNka4uLjMmTMHXVdWVlZVVdXX11t26AeSuOnGsNnsgIAAMqmCraA0i70gCCIvL8/Nzc36c3zDwsI4HA66Pn369IkTJ9zc3BznzCoKBNrD0VXnl1HCwsLIkLzvv/9+z549DnVKmTlQmsVetLe3o4ztZm51NYGrqysZNScWiwsLC0NDQz08PKxuI4UtUSqVtsrRr3uaolgsLi4udqhTysyB0iz2wsyIfjOJiYkhcyArFIqoqCjr66SwLcePH0enMthkNS06OpqUeG88SJfSLHZBo9FIJBIul0uGbFoJl8slB7GgoKDeNXz1B9AeDnMi+s2Ey+WS20ECAwN7ncQpzWIXmpubz549O3HiRPPXCDtlxowZKCbY0c6sogAANDc3SySSwMBAW53KgGHY/PnzkcRnz57d6/L7UfEsduHcuXMQQgsi+k3g6ekZExODYRiKmKRwKNDmZgsi+k2AJG5mDiBHg9IstgdC+OzZM5tnbMcwDG2073XDV58HQtja2ioQCCzYw2ECGo22dOlSdOCMDavtHqhIObuAklz0qy3C/RxK4npQmoWCgsL2UI5ACgoK20NpFgoKCtvz/wAK4r4aydTAxQAAAABJRU5ErkJggg==;" vertex="1" parent="1">
          <mxGeometry x="490" y="155.88" width="186.44" height="48.25" as="geometry" />
        </mxCell>
        <mxCell id="Pc5p7mYZ4nAhBxKBuz8C-16" value="" style="shape=image;verticalLabelPosition=bottom;labelBackgroundColor=default;verticalAlign=top;aspect=fixed;imageAspect=0;image=data:image/png,iVBORw0KGgoAAAANSUhEUgAAANYAAABjCAIAAABohmm/AAAACXBIWXMAAB2HAAAdhwGP5fFlAAAV1klEQVR4nO2deVBT19vHz0UIkqULakJrbTXRWrQEt7YkqNVKsNoKbuOo0Ja6oHaxLViLOFStaytiO3WpaMdWBKp1IdYVAqgjuGHYpHVhmdJpJbGo1SQkuTf3vH+c93cnTUL2kFjP5w/mcjeekO997jnPec5zCAghwGD8R5C/DcA86mAJYvwMliDGz2AJYvwMliDGz2AJYvxMsL8NCCw0Gs25c+fcvlwgEAwdOtSL9jwKYAn+C7VavXz5crcvHzNmDJagqxA4NG0OTdMPHjxw+/KQkBA2m+1Fex4FsAQxfgZ3RzB+BksQ42ewBDF+BksQ42dwUMYBBoPhzp07Z86c4XA4AwcOHDBgAEEQAACKopqbm69du/bYY4/FxsaGhIT421IHlJeXP3jwICEhweZRvV5vMpk4HE4XWwWwBO2jUqkWL17c2NgIACAIAkI4ZcqU5cuX37lzZ8mSJbW1tUiOYrF406ZN4eHh/ra3U3Jzc3fs2EEQhEAgeOWVVyyO1tTUZGZmQgi3bt0qFAq72Db8Iu6U2traGTNmQAi/+OKLs2fP7tmzJyIioqioaOnSpe+9955Wq921a1dZWdmkSZPq6+s3btxIUZS/TbaNwWBQKBToEXryySctjpIk+f3336vVarVaTZJk15uHvaBt1Gr1smXLRCLRt99+i15PgwYNeu211woLC8vLyyGEeXl5L7zwwpo1a44ePQoAUKlUFEUFBwfi//POnTtNTU0EQXC53D59+lgcJUmytrYWAMDlcp999tmuNw97QRvQNJ2bm6vRaDZs2GDePEKvXQCATCaLjIzU6XSlpaVoD4fDCQoK0H9mVVUV2hCLxdZt1osXL2q12s6OMphMJoPBQJKk18cyAvGp9Tu3b98uKSlJTEzk8/nMToqiWlpaAAAQwpEjRxIEERwc3LNnT41GExYWNmfOHBaL5T+TO4Wm6ZqaGqbNau2nq6ur0Ts6KirKpheHEO7fv7+iokKpVPJ4vKFDh86bN8+LTUYsQRtotdo33nhj6tSp5jtJkqyrq0PbI0aMAAB07969sLCwoqJi8ODB5mK1z/379xlv6gZBQUEu9VuNRuP58+cBABDCYcOGWRwlSbK+vh5tDx8+3OYdli9fXllZ+dZbb23cuPHPP//MyMhISUnZtm3biy++6NYnsASPEdsGQmghlKqqqgULFhAEIRQK9+7d657Pu3nz5owZMzyRYFhYmEKhCAsLc/L8GzduzJ49GwDA4XBOnjxpcaFOpxs9ejQ6euLECesci3379m3cuHHRokVz585Fe9Rq9fTp0yMiIvLz870SisJe0DbWKlEqlWhnTEyM2+9ckUiUnZ3tSauRx+M5rz8AwJUrV9Dj1FlDEG0IhULrD0VRVHFxMYRw0qRJzM5evXqNHDny1KlTCoViwoQJbn2If4El6BQURTFv4eeff97t+wQFBY0bN85LRjmGpmkUvOysqadUKtGGzaOtra01NTUAgMcff5zZiYKLBEFUV1e//vrrnnh0RIB24gINo9GI2kwQQus2k16v94dRjjEajcyTY202SZJXr14FAEAImUxb889y5coVAACHw7Gps4qKCq/EEbEEbXP58uXc3Nympib062+//YYiFyKRyGIU5PTp0/Pnz79x44YfrHREa2urWq1G25GRkRZHzQX68ssvAwAaGxtTU1OZIM5ff/1FEAQzJsmAfm1ra/NKRwK/iG1w9OjRlStXAgAUCkVeXl5oaOjp06fRIaFQaN6ioijq1KlT7e3tfgnqOuT69euoIQghtG6AlpeXIzFFR0ejD1VWVtbQ0NC7d29gq0NmjVckiL2gJUaj8eDBg2i7ra2NoiiDwcA02/l8vvl3WVNTU1xcnJyc3L17dz/YahfziCBBEDRNmx9tb2//4Ycf0Hbfvn1ZLBYaxxOLxT169AAAQAiZl4AFjPI8meTAgCVoA/S1QQgXLlzI4XAOHjzY3NzMZrMtHvqGhob09HSpVDpjxgw/WWoPpv2KaG5uZrb1ev2XX37Z0tKCPhEKNNbV1TU1NcXHxzNd486cnOddEHPwi9gSFos1ePDgurq6ESNGPPPMMzt27MjNzZXJZEOGDMnOzpbL5QKB4Jlnnjl79mxJSQmfz//iiy8CfGgYvVJXr149a9as8PDwtra2AwcOPHjwYMOGDatWrdLr9ZcuXSotLc3NzRWLxUxAniCI/v37V1ZW2vkTPB7Pcztd/t+ZTKadO3d2dHQwjQzg6LGgaToxMbF///7um9m1pKWlaTSaI0eOVFVVCQSCpKSktLQ0AACXy/3xxx9zcnIAAAKBYPLkyR9++GHAZgpeuXIFfS9CoVAoFJ4/f3716tUAgLCwsKlTpyYnJ/P5/IiIiJycnPr6+qVLl0ZFRWVnZ4eGhqLLmS/XDl4ZFndZgjU1Nbt27bLYyTRdaZq2bvxCCN98800PDe1KCIL4/PPPP/3003v37oWHhzPtvDfffDM+Pv7u3bs0TT/55JMB2P5jgBCikB6EUCaTzZs3T6/X//PPP/fv3+/Tpw8zChIVFbV9+3aKoiCELBaL0R8CObmamhoLLaJfveVTXJYgihUh2Gy2VCodMmRIREQE+N9zg37u3r27oaEBnZaenj5w4ECvmNtlEATBZrOtB6xYLJZAIPCLSS5hMBhQQ5AgiOHDhwcFBaGP89RTT1mcaedBGjNmzNatW8G/G4WMuxGLxV7JzHBNgqjThLZnz569aNGi0NBQa29cUFDA6C8hIQGNUWK6krt376KGIJvNto4IOkmfPn369+/f2Nh47dq16OhotNNkMtXW1kII33jjDa+Y6tq7/M6dO6hjlZqampaWFhYWZq2/o0ePotYSACAuLi4zM9MrhmJcgnlZRUdHu+2rQkJCUlJSCII4duwY4wjr6uqqq6vFYrG3MmVc84IoQhsTE8PkTVhQVVW1ceNGtC0UCgO2t/jfBkLoMAvQSSZMmKBUKg8dOkQQxOjRo+/fv79169YBAwZs3rzZW9+sC3ehKKqyspLNZn/00UfdunWzPqG6ujo9PR0NZPXr12/btm2BmcX5n4ckSSYK2FkWoPMsX7589OjRP//8865duyCEU6dOTUhIeOKJJzw28/9xQYJoSFEqldrMmFWr1Rs2bED643A4W7Zs6dmzp7esxLgEk4jaq1evQYMGeX7DUaNGxcbGonCHTe/jCS5I8OLFixqNZtq0adZGtLe3f/DBB+jJ43A4mzdvfii6jf9VOBzOihUrKioqZs2a5VJyoR2CgoJ8NDnGhazpe/fuVVVVxcXFWeynKCorK6ukpAQAACHctGnTmDFjvGslxg1omg7YGVXmeJq4T9N0ZmYmitRACJcsWTJr1iwv2YZ5JPC0U7Nr1y4mUrhgwQIP9dfR0eGhPQAAm6FKTMDikQQLCwtzc3PRdlxc3Lx58zy5W15e3tdff+3JHRAJCQlZWVlYhQ8L7kvw8uXL2dnZaKxGIpGsWbPGw289Kipq9uzZ9jMezPMoLZoQzP5XX30V6+8hws22oFKp/OSTT1AIRigUbtu2zSIEQ9M0TdM4Lo1xiDsSVKlUM2bMYPS3ZcsWi4ncEMLNmzdrNJqMjIyHIjq9fv1684xOjNtIJJI5c+a4dInLXur27duLFy9mQtDLli2zLiTQ0dFRVFQkk8kCNpfOgmvXrjF5FRhPsM7EcYhrEjQaje+//z4Tgs7JybG5zIZcLtdqtajwiqsG+YWkpKS///7b31b8F3Cj1oxrY8QrVqxA+kPzKmyOP5IkWVxczOVyrUspOsRgMHg+KSs0NNRV6cfHx3v4RzFu46wEIYTr169HQyAAgPT09M5CgC0tLfX19XFxcRYpuA6Ry+VHjhxx6RKbvPLKK/Pnz39YHDDGWQkWFhbK5XK0bScL1WAwoAW0YmNjXR3Pfu655wYPHuy5dKynXmMCGad6xIWFhUwIUCaTrV692ma0xWAwrFixQqFQQAiPHTuGsvldwmQyuXqJNV5P5cD4FMdesKqq6rvvvkP669ev36pVqyz0R9M0qk6ybds2VDJWKpW6l6mF1fMI4kCC1dXVaWlpOp0OAMBms5OSkiorK80dp0qlamxsrK+vN595L5VKcVAa4yT2XsR6vf7TTz9FNToRzMkWjS3zcTOapo8fP+7GWxjzaGLPV7FYLKlU2q9fP5fuGBERgfNVA5YAXBYAF/p9hKAoKjMzk8fjdVavyEkWLlwYExPjLasC64F4lEErTcTGxkZFRfnoT5w9e7asrEwqlaLKlm5z7949b5kEsAQDh+rq6p07dz799NM+kqDRaMzPz+fz+XPnzkUlzt1m8ODB3rIKYAkGCBDC48ePczgc31WirqioqKmpWbJkSXR0NFMaIRDAqZ0BgV6vVygUUqnUR6WSSJLMy8tD1cB8cX9PwBIMCEpLS1FukY+C8xUVFXV1dcnJyd6a0+lFsAT9j8lkqqio6NWr12uvveaL+1MUtWfPHj6fP2XKFF/c30OwBP3P7du3i4uLpVKpj1xUU1NTbW3t5MmTA9AFAizBQKC8vBwAMHHiRF8k+JhMph9++IHL5SYmJnr95l4BS9DPoAxfgUDg3UgHQ1NTU3FxcWJiYsAOWWEJ+pmWlpa6urrJkyf7oi9sMpl2797N5XKTkpK8fnNvgSXoZ86cOQMA8FEVnsB3gQCHpj0BQmgx2cVixaJu3brZn8Oq1+sPHz4sFApdzQVx0rx9+/ZxuVw7hZavX79+69YtLpfLLMAEAKBp2mg0tra2/vXXXzweLzIy0rrmthfBEnQHnU5XVlZWU1Nz/vz5W7duddaNCA8Pz83NtSOvhoYGlUqVnp7ui9muKpVKoVDExcV15gILCgpycnJQAS6xWLx58+bHH3/cYDB89dVXFy5cYD6XQCBYtGiR+Xqw3gVL0GXKy8tXrlyp0WjQN2SneMjdu3eNRmNnR9H0BoIgfBQOLCgo0Gg0M2fOtPmEHDlyJCcnJzU1VSQSLV26tK6ubt26dXPnzs3Kynrw4MGUKVP69+/fu3fvdevWXb16deXKlTwez0etBSxB18jIyGAqiUEIo6Oj29raVCoV+prZbLZIJEJFnrlcrkQisbN4sV6vLy0tlUgkvihHq1Kp5HK5TCYTiUTWRzs6OrZv3y6TyVJSUkwmE2o/lJSUVFZWjho1KiMjg8vlokfr7bffXrp0KUEQJ0+eHD16tC+K9WAJOguEcPXq1SUlJQRBCIXCzz77LDIyMjg42GAwXLhwISMjgyAIgiC++eabsLAwtPiP/eTQ0tJSjUYzfvx4X+SQ5ufnazSauXPn2hRNQ0ODWq2WSqUsFkur1TLufMCAAVlZWeYR7N69eyOBqlQqkiRdnZjrDLhH7CynT5+Wy+UEQYjF4t27dw8fPpzNZrNYLB6P9+qrr6Kl27Ra7ZUrV0JCQlgsln1hURR17tw5Lpfr0lvYyRmGOp1OLpfHx8d3VtvgxIkTTFbOpUuX0E42m7127VqLERS0JDHa9tH4NZagU+j1+u3btxMEgcrooKUrGVgsFtNnbGxsdOaG7e3tJSUlEonEyXAgRVE7d+5ct26dM1nuRUVFGo0mJSXFpmgghGw2mxmvQ8tDAADi4uKsK8JUV1ejjaioKB9JEL+InWLPnj2oksm4ceMGDBhgfQKjDCcnQpSVlREEMW3aNGdaV2q1es2aNWju4syZM20awKDX6/Pz8+Pj4222AgEABEF88sknqNnA1OaHEI4aNcriTPOjvisQgL2gY8yXPbO56hWEEJUaAwDY6X8wkCRZWVnJ5/OdSZBWKpXvvvsuWpSVIIjCwkL7Kj98+HBbW9v06dPttASCgoKQntBCHmjnSy+9ZHFae3s7c9RH3XaAJegMra2taL4Pn8+3OZLLfJEQwhEjRji8YUtLS2VlZUxMjMO3cGFh4ccffxwWFiaRSNCe0tJStVrd2fl6vX7v3r1isdjJvOjLly+jDZFIZB1FR/kTAADUcXHmhm6AJeiYP//8E210tvbk77//jl7TIpHIme7t6dOnCYKYOXOm/dMoiqqurpbJZPn5+R9++CHaqdVq8/PzO7sEucB33nnHyV62UqlE7vDFF1+0CI+jxbZQgEkqlaKjNE17fcollqBjmEWWBQKBzabb0aNHmYI7Dh0beq0LhcK+ffvaPzM4OHjdunVZWVmhoaH9+vWTyWRof2lpqc2lCQwGA3KBsbGxznwukiRbWloAABDCoUOHWjT12tvbmSXZx44di87PyMhw2BJwFSxBx3Tr1g39022WiOjo6EA176KiolJSUhze7erVq83NzTKZzJlXG+PMQkJCxo8fj8xQqVRFRUXWJ58/f76tre3tt992criPJEk7DcGysjK0wVQIam5uVigUqB/jzP2dBEvQMcOGDQMAEARx69Yti0MQwuzs7Nu3b7PZ7MzMTIffPRqUAwC4sUy9VCplWniHDx/W6/XmR41GY15eXnR0tJMuEADw66+/ol6USCQKDw83P0TTdGNjI5JabGxscHAwhHD//v08Hs/r/RIsQcfweDyUbHLhwgVU4QlBkmROTo5cLudwOBkZGfZjJQg0lCKRSHr16uWqGSwWi5n80dTUZF7rBwBQUVFRW1s7depU5/sNSqUSbcTExFhcZTKZUKcHQoieQKVSWVRU5Iu8LyxBp1i8eHHfvn2bm5s/+OCDM2fOKJXKn376aeHChYWFhVFRUfv27Zs4caIz91EoFGq1GvkVN8yQyWSouDxBEHl5eSRJov0UReXl5fH5fKa96BCKopiYHxKZOSEhIRKJBA3Ntba27t27Ny0tLT4+nukVeREcmnaKkJCQgoKCLVu2yOXytLQ0lIUgEolSU1NTUlKcdDxophyHw0lISHDPjO7duycnJ6NF7+vq6pqbmwcOHAgAOHfuXG1t7ZIlS5wfw4X/QygUMhEfc2bNmnXz5s1ffvnls88+AwBMmjRpxYoVvohO47JGrqHT6f744w+NRhMZGRkSEuJSnp9Wq504caJEIlm7dq3bg106nW7ChAmoDRcXF7d27VoIYWpqaltb26FDh1zK/m9vb6+vrx85cmRnLpmmaZ1Od/ny5ZdeeonL5bpnsEPwi9g12Gz2wIEDUY6Cq3mmR44c0Wq148eP92Swlc1mM060pKSkqakJucC33nrL1dknPXr0GDNmjP1BFC6XO3bsWN/pD2AJdhnMoJznZdGSkpJQngRBEAUFBQcOHBAIBIE5Td0ZsAS7CBTpjYmJ8Xw+uUAgYFpvZWVlFy5cSE5O9lExmi4AS7CLQJFeh4NyzkAQxLvvvosa8TqdjsPhPLwuEGAJdg0kSR4+fFgkEjkclHMSkUjErBiVmJgYmJU6nARLsCtoaWlpbm6Oi4vzVr5JcHDw+PHjAQAcDic5Odkr9/QXOC7YFaDUGLfDgTYZOXLkuHHjxGKx9UqoDxdYgj6Hoqi2trbExETvagXl0fwH1p/HoemuAE2UDLTVFgIELEGMn3no3TjmYQdLEONn/g/Qm5VCtxic4AAAAABJRU5ErkJggg==;" vertex="1" parent="1">
          <mxGeometry x="690" y="235.94" width="104" height="48.11" as="geometry" />
        </mxCell>
        <mxCell id="Pc5p7mYZ4nAhBxKBuz8C-17" value="" style="shape=image;verticalLabelPosition=bottom;labelBackgroundColor=default;verticalAlign=top;aspect=fixed;imageAspect=0;image=data:image/png,iVBORw0KGgoAAAANSUhEUgAAAmQAAABtCAIAAACA4+oKAAAACXBIWXMAAB2HAAAdhwGP5fFlAAAgAElEQVR4nO2de1xbZZrHnwA9qZDMjA0Wg+OQQgVdCbRNd7ZJq0Bt6YwL4pT6UdJOi46C1aIj4M5AbQu7CjO2oVbYcaDjR/i0BUcX2hrcmaatBrWJt/SWqB9iW5OOJqUlup0TLufkcvaPQ0OaO7feeL7/9DTn5D1vApzf+1ze5+EwDAMIgiAIggQn6mpPAEEQBEGudVAsEQRBECQMKJYIgiAIEgYUSwRBEAQJA4olgiAIgoQBxRJBEARBwoBiiSAIgiBhQLFEEARBkDCgWCIIgiBIGFAsEQRBECQMKJYIgiAIEoaYqz2BK8TZs2e/+uqrcb/97rvv/ulPfzqJ80EQBEGuI6aLWGo0mq1bt4777b///e8feuihSZwPgiAIch3BmSZdR2iaHhoaGvfbb7rpJoIgJnE+CIIgyHXEdBFLBEEQBBk3mOCDIAiCIGFAsUQQBEGQMKBYIgiCIEgYUCwRBEEQJAzTZeuIP4ODg99+++3Ro0dvvfXWu+66KyEhgX2doii9Xn/q1Kk77rhj/vz5UVHX9Hrihx9++OCDD9LT01NSUvzPMgwzNDREEERMzPT9QSMIgkycaZoN+/nnn5eXl9vtdg6HAwA8Hm/9+vWPPPLI8ePHq6ur+/r62MsefPDBjRs3XrN6SVHUmjVrvvnmGy6Xe/DgwdjYWJ8L2tvb//znPy9atKi+vj46OvqqTBJBEOQG4BqVgSmlo6OjtLQ0MzNz586dH3744ebNmwcGBrZu3fraa689++yzKSkpf/vb3/bt2zd79ux9+/Z1d3df7fkGxWw2f/PNNwBw2223+duO586dUygUg4ODJpPJ5XJdjQkiCILcIEw775xOp9u2bdvq1aufeeYZVmDuv//+ffv26fX6119/ffbs2fX19QRByOXyCxcucDicU6dOXe0pB6Wnp4c9EIvFM2bM8Dn7+eefs3ZzwLMIgiBI5Ewvy3JoaOiPf/yjTCbzKCUAuN1uVlQA4KmnnuLxeCdOnGAtNgDg8XhXZ67hcDqdJ06cYI/nzZvn+Qgsbrf72LFjwc5643A4hoeHHQ7H1E0VQRDkemd6WZYff/zxqVOn1q9f7+20dLlcJ06c4HA4DMMsXLgQAG6++ebY2NihoaGkpKTCwsKrN99QOBwOvV4PAJ5pe0PTdIizLDabrbm5+dSpU8ePH8/MzLznnnvWrVuHoU0EQRB/ppdYAoBcLr/33nu9X/nyyy/Zg5SUlFmzZgHA3Llz33jjjW+//Xbx4sUROjDdbvfAwMBEJsblcsdUfvbLL79k75icnPyTn/zE5+wPP/xw+vRpDoeTkJBw8803+7/9hx9+ePrpp91u9wsvvJCamqpUKv/7v//7yJEjO3fuvGYTmhAEQa4W00ssc3JycnJyfF48evQo66VctGiRR67mzp07d+7cyEd+5ZVXdu/ePZG55efnb968OXLD7ujRo+xBRkYGl8v1OesJWGZkZPjrvcvl2rx589dff/3WW2+xe04eeughhmFefvnlxsbGZ599diIfBEEQ5MZjeomlP06n0+OuXLBgwbjHWbt27fz58ycyk6SkpMiV0ul0njx5kj2eN2+ejy3odruPHz/OHmdmZvoPazabNRpNRkaGSCTyvLh06dI//OEPXV1d69evxxYrCIIg3kx3saQoypMmEyy2Fwnx8fH+NuvU4XA4WLEMHbAEgIArAKVSyeFw7rjjDm+V/fGPf8zn8+12+1dffZWZmTllc0cQBLn+mO7Rqa+++mpwcBAAMjIyfMwpt9tN0/RVmlcYPAHLgCHJ77///vTp0wAQFxeXlJQEAG6325Pv6rFK4+LivLNkORxOSkoKh8NRq9VX5EMgCIJcN0wvsXS73Uql8s033/z+++/ZVzyRv+TkZJ/Y3s6dOzdt2jQ8PHylZxkBOp2OPQgYkvQ+y+b9dnR0bNy4kaIoAAhWs4lhGFY72cTgKZo5giDI9cg0csO63e4XX3xx//79HA6nt7d38+bNDodDq9WyZ302Iw4NDbW3ty9btsw/d+aq44mzAsAtt9ziE7BkGObYsWOs4InF4piYmOHh4f379yckJLBXMgxz/Phx/52XnleOHz/uEU4EQRAEppVlOTg4yColAPT397tcLrPZ7EmT+dGPfuR98e7du0mSfPjhh69BzfAELAFgcHDQ7XZ7n/3000/feecdAOBwOKmpqQBw9uzZU6dOyWQy1gYNZjV6DEoOh+MzJoIgyDRnGomlx1qaOXPmY489BgCvv/6656yneqrb7d6zZ09zc/OTTz7Jis21hidgCQAGg8F7f+fRo0drampYzWMYJjExkWGY7u5uHo+3dOlS9pqwblj0wSIIgvgwjdywXC43PT3dYDAUFBRcvHjxhRdeOHjw4LZt2/7+978fPny4paWFVZ0jR44cPHiwoKDg8ccfv9pTDoxOp/MI2+nTp1944YUHH3wwJiZGp9N1dXVlZGT8+te/bmho4HA43d3dt956a3t7e0lJiacHWbCaAx6N5PF4WJdgHPR21nUT+etyxfHBPPf9+gMqtdYkKq7OF0367S3qxla1DUS5JcWy+EkffVz0dtZ09ApSJbn5K9L4Ac73H6ir13Il2YWF2aJJiHb0dla36QXCVEn+5IznjUlZ06gmQVRYUyYL9FEmhr69olUHIClWyMWTNaZJWdeqtUN6UZVcfM2Fkq5LppFYEgTR0NBQUVHx5ptvvvnmm8nJyf/5n/+Zk5OTnZ3d0NBw+PDh2tpahmGSk5MVCkVWVtY16ICFSwFLdm5Lly69cOHCkSNHjhw5AgCzZ89+6qmnHnrooZiYmKioqD/96U979uwBgAceeOCJJ57wjMDhcObOncumy3rjccPOnTv32vzs1zSUrqOlq9vW1ana8k5jfmC1ovUdTW0GWkDLsuuyI3rk9qtrSutN2dsay8Thrrdpuru6bZAkKIxULClda3WrblwJ34Lcipqwgm/SdnZ3G4FnFxeuSAtwntSpunt6aB0tLcwON1YEmLSdKpURIF1YKJ/4aD6Qel1PjxXsMgpg8sXSptP29NAE5MN4Zk5ZdN0dnb3pG6pXJHqP2dOtsgEprUCxvAyGYZxO5zh6S0wjsQSAWbNmNTc3OxyOixcvxsfHs3tFOBxOeXn5008/ffbsWbbX1TWY1OOBpmnPxtDHH398zpw5NE1/9913fD5/1qxZnpk/8sgjBQUFTqczKioqLi7OewQOh8O+4qOIDMOwtjVm94wDUt2utgEAT5qXHVSqEvOLpS2VPTZVi7IkWy4KP6pJ1ao22+xtpcW2LY013o/CyYC26Hq0WiCSJFJRpO0CaKtBa7SBUESGvZTs1ZsAgCfLkwb8e6L0PToagJBkTcrDvF+nNQEAIS3MneTv6RqHMqkaFR0GmjBxE5srwi6qpjcURW3dutXlclVXV49VL8cmlj09PRaL5ZFHHrl+H6YEQRAE4a8fM2fOvDYjlD589dVXAwMDHA5n9uzZP/vZz2bMmDFjxoyAM7/pppsCjhATE7N48eKTJ0+eOnXK7XZ7e1zZfmRZWVlTNPnrFJPJpNFopFLpnDlzglxiUXZo7QCQlF+8IsTTii+V5wp7uqzGjna9vDq8x00kb2yGytIGnbl746M2e/O2wsl2LwKAMLtcURbI8gsEqSzNqbVFcuWIFgqy8ySBtdKg1tkBCHG2ZDKe7/1atZ4G4EkLgy9WrhImZV2L2kaFuMJmoAGANrRWVChDjcQVy7cU+36d3LTiuiqdvFZr7KisSd+jWHGtff6rjdPpdLvd33///fvvv79r167z58+LxeJx5DCOQSzfe++9559/nsPh/N///d/69evHeidkUujt7fUUfR13UbqcnJw//elPfX19LpfLI5b/+Mc/ACAhIeHuu++erNneAAwMDFRUVJjN5rvvvrulpSWg14HStLQZaABeVsm6UQWk+nuNZruvl1OUKhDwUyWJFo2OvnwoghCIxCIf4eCnyV9t5VeX1fZYtfWllTAFemlVNZSZeBH+KtHW3giHZbVQmJUfRCt1yh4bACHOlY7p4U71HuhQGf3tWqtWRwMAH3Stjfqg7+YLJLly2RW2PG36HlVPJAsMm+FSh9pg0NlVfmIJAIn5dTXaVZUqW099rVLcmJ8IABRQAEDAdC5c+fXXX+/fv99sNvf19Z06dWqCqRiRiqXb7VapVGxYy7/HBXJlcLlcnip3mZmZ4/7ZJyUlyWQyjUaj1Wo9PVjeeecdDoezatUq7BTtzXvvvWc2mwGAz+cHKd5r6WxR2QAgtbjMe1Vv7a59tMkYcFBtt1Hb7fcqL/dVdZ3M72WuKF/RCBWltT02baNClRUsIjpuxvZA5QLYg540KatrOi0AALTNZAMAUttYWjz6XnHJtgoZHwAobbfaBgB0b8uj+a2BpyWpaK3xC+3Sxu6mNm3QCVh7OtpCCY6AFF9xsWQh0ldW5EdqwAdDKA7yo+JnV1Xl6ipVNm1rZ29+WRrASPmxaa2W3377bXt7Oxt4Wrx48cWLF7/44otxu0UjFUuKotgsEgCQSCTjuxkyQWia9uywnMhPITo6+sUXX3ziiSc2bdpUVlYmFAp1Ot2uXbt+8YtfsJtqEBa2gAN77CmH5AOpbmoz0ADClRVFIvaV/n5+fDwQAmFqEuXlfbNbzTYaAHiCJEGgGCFfGNRmFOXXvWp7ptZUtGWylXJy3bCUqddgMHu9YLcaDNbR//JH3kqqlRpWcu02axDtJUgqxHNekC5NHYv7lrbodObgyUyUrvGZFkPw06TJBgDQ21pZqgph2SetfKk6iBuUEGUXFl62FDJ1VtQobVxJWXOZ/9+yvrVUoaa42RXNxZElyPKzy6vKJUR2HrsWoEZ+867lBIwpJzMzs6Wl5c4774yOjp4xY8arr776xRdfjHu0SMXy7Nmzg4ODbKjs9ttvH/f9kInwj3/84/z58wCQkpLCFn0dNz/+8Y937969a9eud999FwB+9KMf7dixY/HixZMz0RsFiqI8pnxaWiBBoXpbG1U2AGFeVRnrH+tXVq+qt0hKqquKFe353hc++miTDSCpqLG9YuwpLdy04ub2cX+QUNjUTRWmiM0Pqyn8Nbys8rpC0WUv0dqmyg6PmW3qbOuxAwiyquoC5TlZOmtqVdaQz3mBtKyxZizLRVOrfFUQOx8AAPqNel34zGC71aCzhjhPSseQXEyZTAaDmRAEzJUiTb0Gg52XGCKRiuzV6KyX3S9RQBu1aiMAADVyyqaPoNQzIZTIAm7uuc6ZNWsW26J4UohULHU6HWu9ZmZmYv+mq8W3337LHvzbv/3bxFeMBEH85je/KS4udrvd0dHRuLfSnx9++OHMmTMcDofH4/3rv/6r/wWmjvoOM4Agt4L1LgKla2nR2mnQaU108ejDnNQ1VTcZaSBS19VtGFFK0qTubNUJN1RcrYwMIjFVKgUAj8suEgSpUimAIKRVxxWIZbLL7SHS1jF6rG7pMAJAalFZoUQUaGJqAICr8ZwhUrMKJYG8tDZdp8pIg0CSlxvwo9t0SpUxuHuahaL6SdvoV22laAAA2maxWPwHJAEAaMr7JEHw4+NH727sqK3sDhMLpXVtlbow0wLg5TWrx7T0mJZEJJbeobJ58+ZF3nYRmVwWLFiQn59/6623Pvzww5M1ZnR0NP5Ag+Fdkt7/2U3pG6tbDDTwssrL2dga1dtS12UFINJLqgpHn7n96vrqDjMAT7KhrixtZJHTr2msaeqx86wicXOhz/OZIkl/9SL4/Mn1qHElZY1X/glJ9ba2qG0AvKx1PtanB5qiAYBLXHkHIj+9uKIikNtTX6dWGa0gyt1QURhobaNXqMOLpa174wP1vtJFa+sfeCDYO+ie2ge8QrDCojeUXtObtMUEP8i6xOl0RkdHBwzyhTh1oxJKLA8fPsx+HZ7+iBwOx+l0qtVqhmHi4uJ+/vOfX6l5IgAAP/nJTzZt2oQm4JRy9OjRf/7znwDAMMyHH37IPg5iY2M/+ugjAHC5XAsWLLj55pspffszlW1GGoAQ0D31ZV1Wi8Vms9nsAERqUZWXDlg6a2tUNgBBVtVLXk7H+BVVVSrDxh6dorpV0los8ppCb0vx6jbvyB8AAC/vVXWNDABM6lalzuYnpjYDCQBg03UoFH62DyGUFsll8QBgapXLW0zj/G4CIqkKWoXBH9rYUtthpAGSCkuCbrKhaAoACO6N5sEiBEmS9NEoNm01Gm008JLSfXOgAYA0Gcx28DkpuOxCSfWBz6uD3IpUlq2o1dKeX5og9DYWrm4zA8H3/appmm5tbdVqtZmZmffff79nc9rg4OAnn3xy/PjxM2fOJCcnz5s375577gkYy7/xCPohP//889/97neeytqe11955RV20/pNN9104MCB2NjYKzFN5BKolFPK4ODg73//+++//96nMsPhw4cPHz7M/jls27YtJyeHS1j7WRcYbdaqvJSNSC3aUnLJfARSr6hUaO0ASSvranz8rfErqspVho09hpbqRskbZZHGMS3q1rbuoEaM3dDdESBRRQjZrFgSAlFq6qSqkHAMBi9t6jWRACBcWV0SPKeI9QoTRAhXr02rKC0dS5SNspjGcPXUEJ9d3Zw9+t9eReHqDjMhKWtVZPtdq6nJfqbbzpNVtAZIkA6PSW+iASAxVRTyshH/O/fyH6HL5ZLL5RcuXEhISNi9e3dnZ+dLL71077336nS6l19++euvv54/f/7Fixc1Gs2ePXsWLVq0ffv26ZBCH1Qsk5OTH3nkEdZBd/z4cTaJKD09PSMjg32IzJ07N0KldDqdns7DEyHYLnsEmSxiY2NXrVrFVjL65z//qVQqASAuLi4/P5/9W7jppptGijak5WWnqtT89LQkUWpaqgh6FPUq62VSSfYqG2sVXUYagCfJFltU7XqL1UKSdpvNZrP1swd2AKCNHfUtuW94PLSi4sb/yfeYjpSmfnWDl/OOLxAlJfnnfdA2s9UOQPCEQoG/GCYKR5QlMb+uNd/v9JWCSM1XbJAdUNlkEm6/rr2h1Zi1xXcNcSmRkx/gY4xiM+oiqo1wzcCFK+hVtuiNVgDgpYoEIa+jWXc/wb8sO3vHjh0XLlz44x//eNdddy1dunRoaKi+vv7s2bMtLS0FBQUKhUIgEMTExLz++ut/+ctfPv744zfeeKOkpGTqPs01QlCxnDVrVmVlJQC43e7q6uovvviCYZgVK1YUFRWN6QYul+vFF19kHzoTZPPmzQUFBRMfB0FC4PmzVyqV7N7TjIyM3/72t36+prSy9gNlI8em1uJaKwBPUuEJSurr5I92XcqctOvaagPlWRA8gZAPNqvN2FHbkdtezFpbXH6il7+N6uURAKNuV3FZa2eZ30igr1vxaJcNhIXbOiPbCKJvLa5Rhq9aF4y0kua6IKlJlE3vW3KBHK0jwBWtyBcBWFQtLSqdXbMxNa358pRYmrbTAMAN5YYl0lduyBUFP++HVdvWob068sp6la/kfkdSpzUCACGWXEom6yf58QEMcZImAQD4XuHhoaGhQ4cOLV++fOHChU6n85Zbbunv779w4cIrr7zy3HPPyeVyj8clJydn586dHA5Hq9U++uij15dxOY5oa3hfsyd7nsPhjGNvX3R09MKFC326RfoToj+U5/UlS5aM9e4IMj68W2SzPbSDX0vpFRUtBhoEuTUvjcYqxfnZwq4OKxA8oTBRkChMFAgEl/6JFyQKhQJBPOv9snSWrqrXGVsaOnP9Un2mENpiNZttRJI0V+xrftBWrUpnA15qVrZ/7idpVPcY7RAfPJ3F3tPwTJhSNACJhVsq1PJara6pulF8mROaJCkAIAheCFOML1ohl49p6wjdfbXEkl3oBAvB0j2VCxdO7v1IjVpPA0CqVMIHUtdaXdOiI/IaW6t9CwtSFAkAQHjHLA8fPtzX17dixQq2b/yFCxfYv4I1a9b49Pe120d/Ba6vDriephFjIrxYnj17tq+vz1OMdBwzy8vLG8e7EOQq4klqYxgm9Bqx/0BtZYeZJpKK6qouK0sqXte4p0iQlshnu3uQIC4pG+nUoW8tq1aT/OyKxmIxQGLehiKlwpZfknUVSsvwJSU1flVqSWWZSqcFgbSspkzk+w5Tq7zHGGLHIgAhSE0VXR4Go/p7DWYfeU3M31KlXr2xx9hWrZC0V3taX40E0vjcK7/zz6aqkRsCaTRlsQIA6FtK5Z0hzgeEBjYE6yuWXGFiuM3SXME4fLf96m6tHQDSc7MTASBVJACaNndV14jfUORf9itG2tnosLdlefTo0ZkzZ6anpwPAZ599xpoxt9xyy/r1632WjGweHMt0yKgPL5ZHjx71FCO9vgxth8Px1FNPXe1Z3CBUVFTceeedV3sWV47vv//+9OnT7A7Lf/mXfwl2GalvfKZWZQOeZEPdOqFFc8BgNOj1RqMpaUNntUzEukNJi7ZHq4OkVE8eJGnUGwx23qXWHVxxWWvr1H6eoJBaRVmFb3SQtuoBAKzqev+qsbTd5L8r8HL4WVWtPgJMKstyav2q1MWvqKrqMVSqrF31iuz2mhG5JG0kAPBD5fdMGXZzyHUAbTMbx2qejphvXL88KJG8sXPym4mBSdWpo8GjlcDPrqor0pd2mHvqK1tT3yhOG52HnRzxwnp91Q8//PD999/PJogcO3aMzShcvny5/8buY8eOReZ6uYwffvihra1t3J8OAHJycjIzMycywvgI8wldLpenIVRmZub1tXxwuVzHjh272rO4QSDJ8Ue3rkc8VThCrBH7dY0bK9qMNADQ+qbVv2gYPUXwaAouZXTQ5EjCyrVZIyWAe5BgK8ASEGD/3eSWCojPLi/P0m3ssXbXK3JH5JL9XfNJOvGBosl+khyD2cX6dsPBS88rDthb06Ru7TbYQZi1rjBgEyyLurXLENgxTdpJGgD4AgEA2W+y2ahIZuINPzEtMdLfHVLTyhb192pVxhVXKDbo5Q0GY1N1k8SrfhS7LAG+9+ieSlU0TRsMBgBgGGbBggU+96Eo6uOPP2bP3nPPPZF/mL/85S9//etfx+EF9XDx4sX09PQrL0ZhxNLhcHjKEVx3JWFnzJhRXl5+tWdxgzA+D/x1CsMwnmVW0FWzpbOytO3SJg2apgEIXlKqRCyWSCRisSR19EFus9oAgBAIQmcmXh340g2KQG7YnFotCLIrFAHdsCELx42R+BVVG7p1tVprd31j4f9Ui7kjFRn4IT2QdlXlL1STNgcP3NTC4oC1WPWWzm6DHRJlRcWBixLYOoOJpc1CAgAh4BMA2gZ5pWrs7bZ56eWtrZE0QAVTZ5PKBgDC/JJc73mK5DUbVPIGg7mjpinXI5cjS2B+wHWJw+E4ceIEu2T0L19lNps9rhfWZxshlZWV69evn4hYzpw586qYbWHE0hOwTEhIGHdJWLfbPYZyWsGZOXPmmK6Pjo6Wy6fAzYHc6HgXrA/a5TRRmpsOBqMgVSyRZEmlYolYHHj5T1ksNgDgC+KvxZLWpK61rs4vwcdsBACwaVvqSL/nqN0Yzg07RuLzK4o7i5WJRflCLgCQdpvHErsBoKxWGwAIhUIugCBdKr1UnIm26HVmSJKIE4PZ6rTNqDPaAAhRrkwUyb1M7TUtRhqAJy0p8t22K5LXlKjkTQazqkNbIs5mTXgbDQAEjxfoF/fTTz8N0Q1QfankrFQqHVPpTVZfI7/+2iGMWHqcUSkpKd7OKIqiGIaJRL3cbvf27du//PLLCU4UANasWZOTkzPxcRAkNJ6SsAzDeK+p3W734ODgpT/1xNyaPdnCtMRwDwqTwUQDgChtQpXvvSB7dZZEyYQLXxOJoqQkHoBJpzP5nrOzlUktel2gzh+CpCQBVziJDzxRcfOB4ktPXG9LLCi83G3KqrEVUi9+1K8q0pXAZjHZASBRlAgAYrmikV2/U3qF/FEdgJ2XW+WTdjNCv7rm0UoA4EkqaiKzKttrmgw0AJFeXBFoRFFRRRVYUgtXXPrVIW3ssoQfcBl39OhR9kAsFvtEImiaPnjwIPsHsmTJEjauSVFUVFTU9ZXXMiZCiaV3wNK7PxFFUfn5+fPmzauvrw9rDkdFRaWlpU287gzDMDfffPMEB0GQSPj8888DrqkbGhr27t2rUqni4uIAIF4UeD8jadLpLILsEWPApNWZAUCYmh6qJFy/pZ+fGIHpadE01ta26VO3HGjMn6BaioubO4sDnxpxwwoLGzv93bBTwqhtQlmtVgAQCEK6YbkEn88fyxcw2YV1I4UyGiwAIBT5lLTjijfUlRtLG3Q9tY+Wka/WyS9b/FC9ndWV9T1WIJJWKrYFq6HrDamrqxiRypKqy4onet8z/zIfs5XtO8YL0DDO4XCwAUsAmD9/vs9Zk8nEriYTEhLuu+8+ABgcHCwsLFy2bNlzzz13o1YZCyWWrM+aPfYO8O7du9dms91///0ROo7z8vJcLtdEZgkAHA7nRv0ZINcaxksZkd5r6nPnzimVysLCQlYp/SBNOo1G3aNSawxWO6Ru+B9ZsQgAepVKIwAIpbmhKgWQ2vpVTWRueV31iqDbR0hjZ01TY7fRDkBYTCYKxt7naxSq90CHNuhuB1JvAgCwG9pbW4NvZxFKi1akTboE2SwWGgASRcLJHvmqYNLp7QCEKF3ke4abJn+1GZ55pkGnbXhUrttQUyWXxANAv669vqapx0oDL72obluF7+bIAFC97ZUVXWYagCetqCuOsDkpabGSAJeM3sthIxGs7ehfA7ynp4ddTXp8sJ9++mlfX59EIrmBn9KhxNLtdp8/f579vjzbBnp7e1977bWCgoJ777038ttcX2m0yHTGe3u1J2DpcDheeuml2NjYNWvWeF9M9Zt0WrVardbqDKNNjAlB+kiZMUtnQ4cZAJJyC0O28KVo2m4zaA028BdL0m6nAcDe01QPAECk5lXVVeWLJqZSpKGjqSl4s2MWm66rKUR/p3R+XmCxtKkqC3WXWyu0PVQbSKmO2zYAABG7SURBVC8oo8EEADyh8Co1LptcLDq9FQBSpQFzaLlp8uY3Eusqa7qMPQ2l2s6sPAmt7dZaaQBeal5FZD9msre9srRBZwcgklYq6iIva2HSG2kAEAgDxNo//fRT9sA/YOlyuc6cOcMez58/PyoqyuFwtLW1JSQkLFq0KNKbXw08WUXjSy8KJZZRUVHJycnffPMNALhcLpfLderUqS1btiQkJDz55JM38AoCmc5ERUV5EhBYjwhFUTU1NUeOHGlpaZk9e/bIdf0Hap5pUBm92n/whBJZdm5uXpY0LZ4LAP2aujKFjgYQ5JaFWe3bLP0AIBAGyGmx9Kj0njukrqzZVpEdNkwanvi8be8Eb1RMqqpXNxkgaeWrjUE8egAAhCCYntltZvv4quVQBrXODgBp4iB5VZdmaDrQ2Wkaw8CWiErJkj31xeYADluKZD2Wva2VpaoA3/6l8353VasMAJAkDtgkEwAAErMrttVAZXWXkTb3dLFRVV76OkVjWQQmJVjUdZXVXUYaAIS5dc1+NXpC0KvW2QCASA30VXv2UC5atMgnDBkVFcXuwmQ7ojudzrfffvvkyZPbtm0baw7mVON2uz/44IOoqCiGYRiG0Wq17Ic6ffp0V1eXUChkT911112jf9fBCSWWM2fOXLduXU1NDYfD2bhxY1xc3JEjRxISElpaWiax/TSCXGsUFhbu2rVraGiopaVFr9drNBq73f7SSy8t9K5LxufTFhsNALwkaXZ2bm5+tmw0LEVZ1C219W06GwAI87aMtLv0wOVxAey0yajrFfAAwKbSWQF4Ir+y16ROweotAC+9qKauInvCRX5Isp/d6BeiufKlVpJcbsgOzGR/PwlcLt83HijIqqorDtjahH955I6y6LRGkiD4XLajImnsUKhsAJCeJQ1tWNKGrvpwhvE4oG1GQyhRtVsNughNZAAAk6rbAABCWZ7PWoki+60mg16v02l1Wp1nxcUTCGibjQa7oa10RWeSWCaTSiUScXqqKFA426JprK5uM9gBgEhaWddcnR38OyNNOr2N4PMIPhsdpizKhk4zAIBI6iewTqeTtZEAwH/HIIfDKSoq2r9/P4fD2bFjB4fD0Wg0zz///DWYfTk0NFRRUcE6RxmG8Rh4g4OD27ZtY4sTud3urVu3Llu2LOxoYbJh8/Ly4uLiurq6+vr64uLinnrqqcLCwqvRwRwJCkVRY0rdRsIiEAjefvvtV1555cyZM6dPn160aJFcLp87d+5lF3HFhWXlWaJsmcTHi0XpW0vLmthNd4Qwd0tzjcz3ISYUCQFstKGpdHWT50WeVOoXheQnpYsIMBPpRXXbKvyGGQ/qmhWVPRFu5DJ3lP6iI+xVgrzmAzWXP1EFqRJxSLfzCFzC1FFdr/OZDiFcWRIwP/SyWySlC8eS4DPSPDIMRGpWYXAjMAQ2ndKv+TOpae0wAkBSbl4aAFC9yqY2tdFispisVrv3VAhhujQ7v7AwVybikyaNqr2js0dntJl1KrNO1QEAQPCEojSRUCiUFZaNVEWwKOtHlFIgLd9WJw/o5x29hUVZ+0y3/zqAl7Uu1+/zxsTEyGSygYGB9PT0hYEK195xxx0tLS2tra0DAwNxcXENDQ0jrXiuMQiCKCoqioqKClE23eVy3XbbbZGMFr5GUU5OzpIlS9i+2CiTY8WnLeKkY7PZNm/eLBQKT506NZFxtm7desstt0zWrG4Abr311rq6Ora1HEEQgX6IfElhwF28XHFesayjUg2SvPKqihWBok6JhVVbTE2dBsulsjJcvkhSXBGgG3L8iooqa3Za0URjlB4EEukkP9a44tHwJD9VlpuVxgv94PYiXpqXndqvJ+mRFpY8QWJaXkm5PKw3USCtbq0Z29aRSEop8NOLKyoikXlf9Aq1n1gCPzVdSGhFxUVpAABckYDU9Yx4gwmeUCQWp6dKZNlSifcGXb5IVlgtK6ymLHqtVq3RGHQGvdlG261GndWYVFRcdenSxPxtrXR1jUZSURNGKAEAuJJsCa9bddkMeUm5ZXVbAneOKSoqevDBB0O4VSUSSWZmptPpjImJuWabP8+YMYPtnTUpjKf4OhIhTqdToVCUlJRM3aYXhULR3t7+85///LPPPpvIOPv27fvpT386WbNCSIuJEgT0nU0Z/TqlqpcEvjg/P2Ktug6hTAc61FYgUnPlsrGYgJRJpzWRQAglsoA7VE3qdo0F+Gm5+ZLxGPCkSaMz0cBPlUouiyhTpl7b6F5ci+6AnooXiZJEkWwTGh2k32Qym4wmKjVIRlVko1AkSVKX6sMQ/EtNb5AIQbGcQjo6OrZu3dre3j5FJcj7+voeeughmUz2wAMPWCwTKqvyy1/+MsiOCARBECQCNywyPpxOp0ajmTt3bnJy8hTdYs+ePXa7/bHHHgtakg1BEASZDHD7x1Rx4cIFjUazbNmyKQr0Dg0N7d+/f/HixVMnxgiCIAgLiuVUoVQqORxOdnb2FI2/d+9eu92+atWqaza6jiAIcsOAYjklsIWGxWKxSCSaivGHh4f37NmTkZEhk8mmYnwEQRDEGxTLKUGv13/zzTfLly+fIh/s3r17z507t3bt2hu4xj+CIMi1A4rl5MMwzLvvvsswzNKlS6difIqidu3alZGRsXjx4qkYH0EQBPEBxXLyGR4e/vjjj2UyWXz8lNSCZgsqrV27FmtEIAiCXBlQLCefw4cP9/X15ebmTkXqDUVRhw4dSklJwWglgiDIFQPFcpJxu90fffQRj8dje6JOOhqN5vjx47/61a+wHiyCIMgVA3cdBIaiKJPJxPZsT0xMFIlEEfo8h4aGtFqtTCabim41Dodj165dCQkJv/rVrwJe4HQ6jx8/TpLkbbfdNnfuXE+VfZqmnU7nV199RZLkmD4OgiAIAiiWAVEqlX/+85/PnTvHls9mGCYjI+O3v/1tZmZm2Pe+8847AwMDubm5U9Hv88iRIydOnKisrAyoxAzDbNq06eDBgwDgdrtXrlz5wgsvAEBfX9+OHTuOHDlCkiT7iTIyMp599tl58+ZN+gwRBEFuSLA2rC/Nzc07d+5MSUlZu3btggULAOCTTz7ZvXt3VFRUW1sb2/U0GA6Ho7y8/PTp052dnaGvHAdOp7OkpOTcuXPBBlcoFEqlctOmTefOndu+fTsAPPfcc7fffvumTZtSUlIKCgruvPPO7777btu2befPn4+NjX3rrbduvfXWyZ0kgiDIDQlalpehVCp37twZFxenUCg8XThomr5w4YLdbv/kk09CV+Tp7+/XaDQFBQWTrpQAcPr06ZMnT5aXlwcc3Gq17t+//4EHHrjvvvuOHj3Kvvjaa68NDQ2tWbOmtLQ0NjYWANLS0o4dO9bR0TEwMPDee+/J5QGbTCEIgiCXgWI5Crt/EQCkUmli4kj7n8HBwaampsHBwUjaUiqVSgB4+OGHJ31uLpfrjTfemD17drBo5fvvvz8wMMCKH0mS7IvDw8O//vWvn376ae/aBWlpaWyXzb6+PrfbPRXuYgRBkBsMfFCO4nA4Tp8+zR67XC72IDo6evbs2QCwaNGie+65J8TbPZs6pqLE3alTpw4ePLhs2bKAZqXD4Th48GBycjK7s7O3t5d9fc6cOevXr/ep8tPb2+uJxaJSIgiCRAJalqN899137MGhQ4cAYPHixRKJZNasWe3t7d98883cuXOjo6NDvN1kMp0+fbq0tDTCTR0URb388sspKSlhfaGsWRkXF7d69eqAFzAMExsbu3LlSoIgnE6nXq9nX1+7dq3PZFwul8lkYo/vuOOOSOaJIAiCoFiOcvvtt8fFxQ0ODgLAoUOH2LTShISE9evX5+fnh337W2+9xeFwcnJyIrnX119/vXHjxjNnzrD7QELHOM+cOXPw4MHVq1cnJCQEvIAgiFdffZXVcofDcfLkSQBgGGbhwoU+V1IU5TmblpYWyVQRBEEQ9MKNEhsb++STT3rSgzkcDofDOX/+fE1NTUNDQ+i04eHhYa1WK5VKI/HBvvfee48//viZM2cA4Ny5c/v27QtxMcMwb775Jo/HC2ZWsnis3i+//HJgYAAAUlJSZs2a5XPZJ5984jk7RR1REARBbjxQLC9DLpfX1tbOmTPH7Xa73W72RQ6Hs2fPnnPnzoV4o1arPX/+vEwmC9sGZPv27f/xH/+Rnp4uFovZwXfv3j08PBzs+r6+vkOHDhUUFAQzK33wpMKKxWKfyTAM89FHH7HHU9eVGkEQ5MYDxXKE4eHhwcFBhmHy8vL27Nnz7rvvKhQK75J1arU62HtdLteBAwfi4uLCthmhKOrIkSMlJSU7duwoLCxkX+zr69NqtcHe0t7eDgAR7vFwOp0nTpxgj+fNm+eTv0NRlOdGWVlZ7IHD4YhkZARBkOkMiiUAwMmTJ9evX3/PPfds376dYRiCIIRCYU5Ozh/+8IfS0lL2mhCWJStCUqk0bJsRLpe7Z8+ekpKSmJiYZcuWsXm2ALBr166AotXX17d//36pVBqhWelwODzZPf4BS4PB0NfXBwDJycmsD/bChQslJSXvv/9+JIMjCIJMW1AsYXh4eOfOnXq9nsPhaLVaiqI8pzgcTmpqKnscYt/I/v377Xb7kiVLQqfLsnjSU2fOnLlmzRr2+OTJk2zejQ979uyx2+2/+c1vItnlCQBffvml3W4HgOTkZJ+AJcMw//u//8uOs2zZMnYahw4dOnny5G233RbJ4AiCINMWFEtwuVwajYY9njNnjv+uRABISUnJyMgI+Han06nRaMbXZuTBBx+Mi4tjj99++22n0+l99vz58/v371++fHlKSkqEAx49epSVQ7FY7BOSpGnaYDAAAMMwrA/W4XCoVKqMjIw5c+aMdeYIgiDTChRLmDFjBqtGeXl5Gzdu9LYOP/vss927dwPA008/HSwd5sKFCxqNZtmyZeNoMxIbG1tQUMAeHzp0iM2P9bBv3z673f7YY49FWDrA6XSyRRUYhpk/f76PMepyuVhPMo/H+9nPfgYAra2tJ06cWLduXdikJARBkGkOiiUQBLF27VqGYcxm89/+9rcPPvjgww8/7Onp+a//+q/KysqBgYHnn3/ekw7jDxvw++Uvfxmhp9QHuVzuMS7/+te/ejaoDA0N7du3b0xmpdPp9Phy/QOWXC5XKpUCwMDAwIkTJxQKRXNz8+rVq0NXu0UQBEEAixKw5OXlxcbG7t69e+vWrQDA4XAYhklISJBKpY899pgnbOkPTdP79u1LSEhIT08f361nz54tlUrZmkGHDh0qKSlhc3n27t3b19f32GOPRRIHZWEY5uLFiwBQUFDgSR3yEB0d/bvf/a6vr0+v1z/11FM8Hq+0tPSJJ54Y37QRBEGmFdiiaxSKohwOR29vL0mSaWlpN998M0EQoV2gvb29crm8tLS0pKRk3PdlB2ENU7lcXl5ePjw8XFhYmJycvH379piYMSxozp8/f/bs2QULFgSbNk3TNpvNYrHceeedHosWQRAECQ26YUfhcrk8Hk8ikWRnZwuFwpkzZ4YNFvb09HA4nAl6MlNSUnJzc9njw4cPDw0N7d2799y5c6tWrRqTUgLA7NmzFy5cGGLa7K4YiUSCSokgCBI5KJbjZ3h4eN++fWKxeILZpDExMStWrGCP+/r63n777V27dmVkZCxevHgypokgCIJMFBTL8fPFF1+cP38+Nzd34tmkUqnUszVlx44dfX19a9euHatZiSAIgkwRKJbjhN3jzzBM2BJ3kcDlcleuXMkeczicjIyMJUuWTHxYBEEQZFJAsRwnbIm75cuXCwSCSRlw+fLlt9xyCwAwDIN7HxEEQa4pUCzHCdtmZMmSJZPlLOVyuWvXrgWAzMxMmUw2KWMiCIIgkwJGxcaD2+3++9//Pnv27EnxwXpYtWrVhx9++O///u/YPAtBEOSaAsVyPDgcjoGBgfvuuy82NnYSh50xY8Yrr7yCSokgCHKtgUUJxglFUQRBjK/EHYIgCHJ9gWKJIAiCIGHABB8EQRAECQOKJYIgCIKEAcUSQRAEQcKAYokgCIIgYUCxRBAEQZAwoFgiCIIgSBhQLBEEQRAkDP8PG+p4dy6ReQoAAAAASUVORK5CYII=;" vertex="1" parent="1">
          <mxGeometry x="690" y="350" width="324.46" height="57.79" as="geometry" />
        </mxCell>
      </root>
    </mxGraphModel>
  </diagram>
  <diagram id="anpzNzMU-8i7JzakCwMM" name="Page-3">
    <mxGraphModel dx="954" dy="663" grid="1" gridSize="10" guides="1" tooltips="1" connect="1" arrows="1" fold="1" page="1" pageScale="1" pageWidth="850" pageHeight="1100" math="0" shadow="0">
      <root>
        <mxCell id="0" />
        <mxCell id="1" parent="0" />
      </root>
    </mxGraphModel>
  </diagram>
</mxfile>
